<svg xmlns="http://www.w3.org/2000/svg" viewBox="0 0 540.49 287.64"><defs><style>.cls-1,.cls-6{fill:#0064a3;}.cls-1,.cls-2,.cls-3,.cls-4{fill-rule:evenodd;}.cls-2{fill:#009fe3;}.cls-3{fill:#fc0;}.cls-4{fill:#009640;}.cls-5{fill:#878787;}</style></defs><title>Ativo 2</title><g id="Camada_2" data-name="Camada 2"><g id="Camada_1-2" data-name="Camada 1"><path class="cls-1" d="M370.91,58.47a9.61,9.61,0,0,1,6.83-8.91c10-3.44,23.13-5.16,42.75-4.6h.15a5.42,5.42,0,0,1,5.43,5.38v7.33a5.43,5.43,0,0,1-5.43,5.44,4.3,4.3,0,0,1-.62,0c-7.26-.63-16,.89-19.87,2.66v79.56a5.42,5.42,0,0,1-5.42,5.27h-18.4a5.42,5.42,0,0,1-5.42-5.42V58.47Zm-44,77.26V96.17c-17.07-1.33-31.16,4.94-31.16,21.37,0,12,7.23,19.2,19.7,19.2,8.1,0,11.46-1,11.46-1Zm29.36-35.07v40.25a5.47,5.47,0,0,1-3.32,5l-.13.07c-9.12,3.58-22.8,6.07-39,6.07-31.37,0-47.9-11.33-47.9-32.73,0-26.54,21.9-38.84,60.92-36.87-.91-10.26-7-16.58-21.47-16.58a58,58,0,0,0-20.51,3.81l-.06,0a5.49,5.49,0,0,1-7.34-3.41l-2.91-7.46a5.52,5.52,0,0,1,3.07-7l.07,0a73.07,73.07,0,0,1,33.14-6.52c27.05,1.06,45.42,15.34,45.42,44.83v10.6ZM252.48,51.24a5.48,5.48,0,0,1,3.17,5v93.28c0,29.49-18.38,43.77-45.43,44.83a73.14,73.14,0,0,1-33.15-6.52l-.06,0a5.5,5.5,0,0,1-3.07-7l2.91-7.48a5.5,5.5,0,0,1,5.23-3.82,5.67,5.67,0,0,1,2.11.42s0,0,.05,0a58.08,58.08,0,0,0,20.52,3.8c15.81,0,21.59-7.51,21.59-19.46v-5.78c-3.47,1.93-9.44,3.27-18.12,3.27-24.86,0-42.79-19.08-42.79-50.11,0-34.7,17.73-56.47,53.39-56.47,13.83,0,25.78,2.45,33.5,6a.38.38,0,0,1,.15.09ZM226.35,132.1a20.85,20.85,0,0,1-10.45,2.51c-15,0-21.2-11.18-21.2-34.7,0-24.86,6.36-37.39,21.77-37.39,4.06,0,7.57.58,9.88,1.74V132.1ZM118.4,14.92a5.43,5.43,0,0,1,3.11-4.9l17.22-9a7.31,7.31,0,0,1,3.54-1,5.42,5.42,0,0,1,5.42,5.42c0,.12,0,113.26,0,113.26.07,6.75,6,12.12,12.79,12.12a5.39,5.39,0,0,1,5.39,5.42V145a5.4,5.4,0,0,1-5.39,5.42h-5.95a36.13,36.13,0,0,1-36.12-36.12V14.92ZM71.62,103.29H39.91l12.6-44.12a114.87,114.87,0,0,0,3.55-16.35h.39A103.09,103.09,0,0,0,59.6,59.17l12,44.12Zm16.69,47.27h0a5.43,5.43,0,0,1-5.15-3.86s0-.09,0-.14l-7.13-25H35.18l-7.49,25a5.41,5.41,0,0,1-5.21,3.93H5.42A5.42,5.42,0,0,1,0,145.14a5.58,5.58,0,0,1,.24-1.6s0-.1,0-.16L40.79,19A5.43,5.43,0,0,1,46,15.06H69.25a5.41,5.41,0,0,1,5.16,3.74l40.37,124.57a5.48,5.48,0,0,1,.3,1.77,5.42,5.42,0,0,1-5.35,5.42H88.31Z"/><path class="cls-2" d="M447.75,50.45A5.43,5.43,0,0,1,456.07,46s31.39,18.12,31.44,18.16l.05,0a5.42,5.42,0,0,1-.33,9.43L455.8,91.77h0a5.42,5.42,0,0,1-8-5V50.45Z"/><path class="cls-3" d="M498.09,79.49a5.43,5.43,0,0,1,8.33-4.44L537.86,93.2l0,0a5.42,5.42,0,0,1-.32,9.43l-31.44,18.15,0,0a5.44,5.44,0,0,1-8-5V79.49Z"/><path class="cls-4" d="M447.75,108.56a5.42,5.42,0,0,1,8.32-4.43s31.39,18.11,31.44,18.15l.05,0a5.42,5.42,0,0,1-.33,9.43L455.8,149.88l0,0a5.43,5.43,0,0,1-8-5V108.56Z"/><path class="cls-5" d="M447.36,176.1v-6.56H423.18v6.56h7.21v34.82h9.81V176.1ZM480,195.22q.3-8.24-3.16-12.78T466.3,177.9a15.68,15.68,0,0,0-6.22,1.17,12.36,12.36,0,0,0-4.6,3.37,14.8,14.8,0,0,0-2.83,5.3,23.16,23.16,0,0,0-1,6.88,21.79,21.79,0,0,0,1.05,7,15.05,15.05,0,0,0,3,5.32,12.83,12.83,0,0,0,4.9,3.4,17.57,17.57,0,0,0,6.65,1.17,28.61,28.61,0,0,0,6.91-.69,22.9,22.9,0,0,0,4.69-1.65l-2.1-5.84a16.77,16.77,0,0,1-3.43,1.21,20.26,20.26,0,0,1-5,.54,7.68,7.68,0,0,1-5.47-1.75,8.58,8.58,0,0,1-2.35-5.35L480,195.22Zm-8.72-3.48L460,193.42c-.16-3.37.31-5.87,1.41-7.52a5.19,5.19,0,0,1,4.54-2.46,4.54,4.54,0,0,1,4,2c.92,1.33,1.39,3.43,1.39,6.32Zm34.82,17.44-2-5.65a4.73,4.73,0,0,1-1.66,1,6.76,6.76,0,0,1-2.25.33,4.83,4.83,0,0,1-4.39-2.71,15.41,15.41,0,0,1-1.57-7.64c0-3.33.49-5.88,1.48-7.67a4.84,4.84,0,0,1,4.54-2.67,5.76,5.76,0,0,1,2.28.39,8,8,0,0,1,1.57.87l1.92-5.17a10.4,10.4,0,0,0-3-1.63,14.33,14.33,0,0,0-4.94-.72,12.15,12.15,0,0,0-9.35,4.27,15.52,15.52,0,0,0-2.89,5.24,22.62,22.62,0,0,0-1.05,7.21,24.21,24.21,0,0,0,1,7.25,15.18,15.18,0,0,0,2.8,5.3,12,12,0,0,0,4.24,3.24,12.67,12.67,0,0,0,5.32,1.11,15.76,15.76,0,0,0,5-.66,7.59,7.59,0,0,0,2.94-1.68Zm32.66,1.74V188.19a12.36,12.36,0,0,0-.6-3.88,8.21,8.21,0,0,0-1.95-3.22,9.75,9.75,0,0,0-3.46-2.2,14.5,14.5,0,0,0-5.17-.81,16.32,16.32,0,0,0-3.64.39,18.21,18.21,0,0,0-3.34,1.12V163.71h-9.38v47.21h9.38V184.7a8.34,8.34,0,0,1,1.89-.69,9.57,9.57,0,0,1,2.08-.21c1.84,0,3.11.44,3.79,1.32a5.17,5.17,0,0,1,1,3.25v22.55Z"/><path class="cls-6" d="M20.57,276.5l-8.44-15.75H12V276.5H3.73V242.41a21.38,21.38,0,0,1,4.69-1.5,29.59,29.59,0,0,1,6-.57,22.27,22.27,0,0,1,6.27.78,12,12,0,0,1,4.38,2.22,9.13,9.13,0,0,1,2.59,3.53,12,12,0,0,1,.85,4.61,8.56,8.56,0,0,1-.62,3.29,8.81,8.81,0,0,1-1.73,2.72,10.14,10.14,0,0,1-2.62,2,10,10,0,0,1-3.27,1.07v.1L29.8,276.5Zm-1.5-29.67q-1.25-1.67-4.61-1.67a6.19,6.19,0,0,0-1.37.13,5,5,0,0,0-1.07.33v13a2.89,2.89,0,0,0,.75.15,9,9,0,0,0,1.07.06A6.12,6.12,0,0,0,18.71,257a7.44,7.44,0,0,0,1.6-5.08A8.54,8.54,0,0,0,19.07,246.83Z"/><path class="cls-6" d="M40.68,265.36a7.45,7.45,0,0,0,2,4.62,6.66,6.66,0,0,0,4.71,1.5,17.45,17.45,0,0,0,4.3-.47,15.2,15.2,0,0,0,3-1l1.81,5a19.65,19.65,0,0,1-4,1.43,25.53,25.53,0,0,1-6,.59,15.17,15.17,0,0,1-5.73-1,11.19,11.19,0,0,1-4.22-2.92,13.27,13.27,0,0,1-2.62-4.59,18.84,18.84,0,0,1-.9-6,19.72,19.72,0,0,1,.83-5.93A12.77,12.77,0,0,1,36.27,252a10.51,10.51,0,0,1,4-2.9,13.55,13.55,0,0,1,5.36-1c4.07,0,7.11,1.3,9.09,3.91s2.9,6.28,2.72,11Zm8-10.77a3.93,3.93,0,0,0-3.42-1.71A4.47,4.47,0,0,0,41.38,255q-1.43,2.13-1.22,6.48L49.9,260Q49.9,256.3,48.71,254.59Z"/><path class="cls-6" d="M86,268.42A13.36,13.36,0,0,1,83.53,273a11,11,0,0,1-3.89,2.88,12.2,12.2,0,0,1-5,1,21,21,0,0,1-2.36-.13,8.91,8.91,0,0,1-1.68-.34v11.24H62.54V250.13a20.92,20.92,0,0,1,4.38-1.48,28.81,28.81,0,0,1,6.3-.59,16.77,16.77,0,0,1,5.64.9,11.35,11.35,0,0,1,4.33,2.73A12.32,12.32,0,0,1,86,256.17a17.75,17.75,0,0,1,1,6.19A19,19,0,0,1,86,268.42Zm-8.37-13.09a4.69,4.69,0,0,0-4.56-2.45,8,8,0,0,0-1.4.1,5.39,5.39,0,0,0-1.08.31v18.4a5.56,5.56,0,0,0,2.12.36,5.11,5.11,0,0,0,4.74-2.45Q79,267.16,79,262.46A15.52,15.52,0,0,0,77.67,255.33Z"/><path class="cls-6" d="M98.76,265.36a7.5,7.5,0,0,0,2,4.62,6.67,6.67,0,0,0,4.72,1.5,17.5,17.5,0,0,0,4.3-.47,15.08,15.08,0,0,0,3-1l1.81,5a19.44,19.44,0,0,1-4,1.43,25.47,25.47,0,0,1-6,.59,15.08,15.08,0,0,1-5.72-1,11.11,11.11,0,0,1-4.22-2.92A13.12,13.12,0,0,1,92,268.5a18.56,18.56,0,0,1-.91-6,20,20,0,0,1,.83-5.93A12.79,12.79,0,0,1,94.36,252a10.55,10.55,0,0,1,4-2.9,13.55,13.55,0,0,1,5.36-1q6.12,0,9.1,3.91t2.72,11Zm8-10.77a3.91,3.91,0,0,0-3.42-1.71A4.47,4.47,0,0,0,99.46,255q-1.42,2.13-1.22,6.48L108,260C108,257.54,107.59,255.73,106.79,254.59Z"/><path class="cls-6" d="M136.27,276.5V257a5.64,5.64,0,0,0-.18-1.42,3.1,3.1,0,0,0-.64-1.25,3.55,3.55,0,0,0-1.27-.88,5.46,5.46,0,0,0-2.05-.33,10.17,10.17,0,0,0-1.94.15,10.43,10.43,0,0,0-1.48.41V276.5h-8.08V250.13a24.08,24.08,0,0,1,5.05-1.5,35,35,0,0,1,6.66-.57,20.26,20.26,0,0,1,5.62.67,10.12,10.12,0,0,1,3.73,1.87,6.88,6.88,0,0,1,2.05,2.8,9.75,9.75,0,0,1,.62,3.52V276.5Z"/><path class="cls-6" d="M166.9,271.58a8.2,8.2,0,0,1-2.1,2.8,10.14,10.14,0,0,1-3.34,1.89,13.15,13.15,0,0,1-4.45.7,18.44,18.44,0,0,1-4.74-.57,11.15,11.15,0,0,1-3.45-1.45l2.07-5.13a7.27,7.27,0,0,0,2.13,1.11,8.12,8.12,0,0,0,2.84.5,3.62,3.62,0,0,0,2.51-.86,2.81,2.81,0,0,0,1-2.2,3.29,3.29,0,0,0-.8-2.28,7.55,7.55,0,0,0-2.77-1.66,14.89,14.89,0,0,1-3.14-1.66,7.85,7.85,0,0,1-1.92-1.89,6.22,6.22,0,0,1-.95-2.07,8.72,8.72,0,0,1-.26-2.15,8.41,8.41,0,0,1,.67-3.34,8.24,8.24,0,0,1,1.89-2.75,8.85,8.85,0,0,1,2.93-1.84,10.37,10.37,0,0,1,3.83-.67,17.76,17.76,0,0,1,4.51.49,12.79,12.79,0,0,1,3.52,1.53l-2,4.61a7.12,7.12,0,0,0-1.75-1,6.47,6.47,0,0,0-2.47-.47,3.12,3.12,0,0,0-2.4.85,2.93,2.93,0,0,0-.79,2,2.88,2.88,0,0,0,.95,2.26A10,10,0,0,0,161,260a19,19,0,0,1,3.3,1.78,8.44,8.44,0,0,1,2,1.92,6.35,6.35,0,0,1,1,2.12,9.54,9.54,0,0,1,.28,2.36A8.26,8.26,0,0,1,166.9,271.58Z"/><path class="cls-6" d="M179.28,265.36a7.5,7.5,0,0,0,2,4.62,6.67,6.67,0,0,0,4.72,1.5,17.5,17.5,0,0,0,4.3-.47,15.08,15.08,0,0,0,3-1l1.81,5a19.44,19.44,0,0,1-4,1.43,25.47,25.47,0,0,1-6,.59,15.08,15.08,0,0,1-5.72-1,11.15,11.15,0,0,1-4.23-2.92,13.1,13.1,0,0,1-2.61-4.59,18.56,18.56,0,0,1-.91-6,20,20,0,0,1,.83-5.93,12.63,12.63,0,0,1,2.44-4.56,10.55,10.55,0,0,1,4-2.9,13.55,13.55,0,0,1,5.36-1q6.12,0,9.1,3.91T196,263Zm8-10.77a3.91,3.91,0,0,0-3.42-1.71A4.47,4.47,0,0,0,180,255q-1.42,2.13-1.22,6.48L188.5,260C188.5,257.54,188.11,255.73,187.31,254.59Z"/><path class="cls-6" d="M238.53,268.42A13.36,13.36,0,0,1,236,273a11,11,0,0,1-3.89,2.88,12.2,12.2,0,0,1-5,1,21,21,0,0,1-2.36-.13,9.21,9.21,0,0,1-1.69-.34v11.24H215V250.13a20.92,20.92,0,0,1,4.38-1.48,28.81,28.81,0,0,1,6.3-.59,16.77,16.77,0,0,1,5.64.9,11.35,11.35,0,0,1,4.33,2.73,12.32,12.32,0,0,1,2.77,4.48,17.75,17.75,0,0,1,1,6.19A19,19,0,0,1,238.53,268.42Zm-8.37-13.09a4.69,4.69,0,0,0-4.56-2.45,8,8,0,0,0-1.4.1,5.68,5.68,0,0,0-1.09.31v18.4a5.65,5.65,0,0,0,2.13.36A5.11,5.11,0,0,0,230,269.6c1-1.63,1.48-4,1.48-7.14A15.65,15.65,0,0,0,230.16,255.33Z"/><path class="cls-6" d="M267.44,268.29a13.32,13.32,0,0,1-2.36,4.61,10.55,10.55,0,0,1-3.86,3,12.2,12.2,0,0,1-5.31,1.09,12.36,12.36,0,0,1-5.36-1.09,10.64,10.64,0,0,1-3.86-3,13.1,13.1,0,0,1-2.33-4.61,21.77,21.77,0,0,1,0-11.55,12.92,12.92,0,0,1,2.33-4.59,10.78,10.78,0,0,1,3.86-3,13.6,13.6,0,0,1,10.67,0,10.69,10.69,0,0,1,3.86,3,13.13,13.13,0,0,1,2.36,4.59,21.24,21.24,0,0,1,0,11.55Zm-7.36-9.41a13,13,0,0,0-.65-3,5.08,5.08,0,0,0-1.31-2,3.62,3.62,0,0,0-4.41,0,4.88,4.88,0,0,0-1.31,2,13,13,0,0,0-.66,3,33.51,33.51,0,0,0-.18,3.56,32.93,32.93,0,0,0,.18,3.53,12,12,0,0,0,.66,2.91,4.81,4.81,0,0,0,1.31,2,3.74,3.74,0,0,0,4.41,0,5,5,0,0,0,1.31-2,12,12,0,0,0,.65-2.91,32.85,32.85,0,0,0,.19-3.53A33.42,33.42,0,0,0,260.08,258.88Z"/><path class="cls-6" d="M289.8,271.58a8,8,0,0,1-2.1,2.8,10,10,0,0,1-3.34,1.89,13.11,13.11,0,0,1-4.45.7,18.44,18.44,0,0,1-4.74-.57,11.19,11.19,0,0,1-3.44-1.45l2.07-5.13a7.2,7.2,0,0,0,2.12,1.11,8.22,8.22,0,0,0,2.85.5,3.64,3.64,0,0,0,2.51-.86,2.81,2.81,0,0,0,1-2.2,3.25,3.25,0,0,0-.81-2.28,7.47,7.47,0,0,0-2.77-1.66,14.79,14.79,0,0,1-3.13-1.66,7.51,7.51,0,0,1-1.92-1.89,6.05,6.05,0,0,1-1-2.07,9.23,9.23,0,0,1-.26-2.15,8.41,8.41,0,0,1,.67-3.34,8.12,8.12,0,0,1,1.9-2.75,8.81,8.81,0,0,1,2.92-1.84,10.38,10.38,0,0,1,3.84-.67,17.87,17.87,0,0,1,4.51.49,12.93,12.93,0,0,1,3.52,1.53l-2,4.61a6.93,6.93,0,0,0-1.75-1,6.43,6.43,0,0,0-2.47-.47,3.11,3.11,0,0,0-2.39.85,3.1,3.1,0,0,0,.15,4.31,10.1,10.1,0,0,0,2.61,1.58,19,19,0,0,1,3.3,1.78,8.44,8.44,0,0,1,2,1.92,6.32,6.32,0,0,1,1,2.12,9.54,9.54,0,0,1,.29,2.36A8.27,8.27,0,0,1,289.8,271.58Z"/><path class="cls-6" d="M311.92,271.58a8,8,0,0,1-2.09,2.8,10.14,10.14,0,0,1-3.34,1.89,13.21,13.21,0,0,1-4.46.7,18.55,18.55,0,0,1-4.74-.57,11.19,11.19,0,0,1-3.44-1.45l2.07-5.13a7.33,7.33,0,0,0,2.12,1.11,8.22,8.22,0,0,0,2.85.5,3.62,3.62,0,0,0,2.51-.86,2.81,2.81,0,0,0,1-2.2,3.29,3.29,0,0,0-.8-2.28,7.52,7.52,0,0,0-2.78-1.66,15,15,0,0,1-3.13-1.66,7.85,7.85,0,0,1-1.92-1.89,6.45,6.45,0,0,1-1-2.07,9.23,9.23,0,0,1-.26-2.15,8.42,8.42,0,0,1,.68-3.34,8.24,8.24,0,0,1,1.89-2.75,8.85,8.85,0,0,1,2.93-1.84,10.33,10.33,0,0,1,3.83-.67,17.81,17.81,0,0,1,4.51.49,12.79,12.79,0,0,1,3.52,1.53l-2,4.61a6.76,6.76,0,0,0-1.75-1,6.39,6.39,0,0,0-2.47-.47,3.11,3.11,0,0,0-2.39.85,2.94,2.94,0,0,0-.8,2,2.89,2.89,0,0,0,1,2.26,9.86,9.86,0,0,0,2.6,1.58,19,19,0,0,1,3.3,1.78,8.44,8.44,0,0,1,2,1.92,6.35,6.35,0,0,1,1,2.12,9.54,9.54,0,0,1,.28,2.36A8.11,8.11,0,0,1,311.92,271.58Z"/><path class="cls-6" d="M324.88,243.24a4.84,4.84,0,0,1-6.12,0,3.52,3.52,0,0,1,0-5.36,4.74,4.74,0,0,1,6.12,0,3.52,3.52,0,0,1,0,5.36Zm-7.1,33.26V248.58h8.08V276.5Z"/><path class="cls-6" d="M352.86,273.09Q349.17,277,342.24,277a27.87,27.87,0,0,1-6.17-.59,13.18,13.18,0,0,1-3.94-1.48V235.83h8.08v13.42a11.39,11.39,0,0,1,2.18-.75,13.26,13.26,0,0,1,3-.29,10.54,10.54,0,0,1,4.53,1,10.24,10.24,0,0,1,3.52,2.72,12.37,12.37,0,0,1,2.28,4.25,18.07,18.07,0,0,1,.81,5.6Q356.54,269.15,352.86,273.09Zm-4.54-14.58a9.78,9.78,0,0,0-.85-3,4.94,4.94,0,0,0-1.68-2,4.74,4.74,0,0,0-2.67-.7,7.77,7.77,0,0,0-1.66.15,5,5,0,0,0-1.25.47v18.34a6.42,6.42,0,0,0,2.49.41,4.68,4.68,0,0,0,4.48-2.59,15.88,15.88,0,0,0,1.38-7.33A27.8,27.8,0,0,0,348.32,258.51Z"/><path class="cls-6" d="M368.92,243.24a4.83,4.83,0,0,1-6.11,0,3.5,3.5,0,0,1,0-5.36,4.73,4.73,0,0,1,6.11,0,3.52,3.52,0,0,1,0,5.36Zm-7.1,33.26V248.58h8.08V276.5Z"/><path class="cls-6" d="M376.33,276.5V235.83h8.08V276.5Z"/><path class="cls-6" d="M397.94,243.24a4.84,4.84,0,0,1-6.12,0,3.52,3.52,0,0,1,0-5.36,4.74,4.74,0,0,1,6.12,0,3.52,3.52,0,0,1,0,5.36Zm-7.1,33.26V248.58h8.08V276.5Z"/><path class="cls-6" d="M424.13,276.5a31.45,31.45,0,0,1-6.19.52,16.46,16.46,0,0,1-5.7-.93,11.7,11.7,0,0,1-4.33-2.72,11.9,11.9,0,0,1-2.75-4.46,18.22,18.22,0,0,1-1-6.19,18.5,18.5,0,0,1,.91-6,13.26,13.26,0,0,1,2.54-4.54,11.17,11.17,0,0,1,3.9-2.87,11.92,11.92,0,0,1,5-1,17.81,17.81,0,0,1,2.29.13,12.73,12.73,0,0,1,1.82.33v-12.9h8V275A16,16,0,0,1,424.13,276.5Zm-3.5-23.41a7.67,7.67,0,0,0-2.24-.32,5.68,5.68,0,0,0-2.87.7,5.39,5.39,0,0,0-1.93,1.95,9.71,9.71,0,0,0-1.07,3,21.55,21.55,0,0,0-.33,3.94,14.48,14.48,0,0,0,1.4,7.05,4.83,4.83,0,0,0,4.54,2.48,5.57,5.57,0,0,0,2.5-.41Z"/><path class="cls-6" d="M452.06,276.45a32.1,32.1,0,0,1-6.4.57q-12.24,0-12.23-8.81a7.77,7.77,0,0,1,1.24-4.5,9.29,9.29,0,0,1,3.4-3,19,19,0,0,1,5-1.73,55.21,55.21,0,0,1,6-.91v-1.29a3.11,3.11,0,0,0-1.34-3,7.12,7.12,0,0,0-3.58-.77,14.72,14.72,0,0,0-4,.54,22.41,22.41,0,0,0-3.29,1.16l-1.76-4.61a40.69,40.69,0,0,1,4.14-1.37,23.61,23.61,0,0,1,6.38-.75,16.71,16.71,0,0,1,4.37.54,9.35,9.35,0,0,1,3.48,1.74,7.94,7.94,0,0,1,2.3,3.13,12.33,12.33,0,0,1,.83,4.8V275A17.26,17.26,0,0,1,452.06,276.45Zm-3-14.61a23.46,23.46,0,0,0-3.31.52,8.09,8.09,0,0,0-2.54,1,4.55,4.55,0,0,0-1.61,1.76,5.86,5.86,0,0,0-.57,2.74,4.4,4.4,0,0,0,1.32,3.58,5.83,5.83,0,0,0,3.76,1.09A6.59,6.59,0,0,0,449,272Z"/><path class="cls-6" d="M481.64,276.5a31.38,31.38,0,0,1-6.19.52,16.46,16.46,0,0,1-5.7-.93,11.37,11.37,0,0,1-7.07-7.18,18.21,18.21,0,0,1-1-6.19,18.5,18.5,0,0,1,.91-6,13.28,13.28,0,0,1,2.55-4.54,11.23,11.23,0,0,1,3.89-2.87,12,12,0,0,1,5-1,18,18,0,0,1,2.29.13,12.57,12.57,0,0,1,1.81.33v-12.9h8V275A15.84,15.84,0,0,1,481.64,276.5Zm-3.5-23.41a7.67,7.67,0,0,0-2.24-.32,5.61,5.61,0,0,0-2.86.7,5.31,5.31,0,0,0-1.93,1.95,9.22,9.22,0,0,0-1.07,3,20.66,20.66,0,0,0-.34,3.94,14.47,14.47,0,0,0,1.41,7.05,4.82,4.82,0,0,0,4.53,2.48,5.57,5.57,0,0,0,2.5-.41Z"/><path class="cls-6" d="M498.92,265.36a7.5,7.5,0,0,0,2,4.62,6.69,6.69,0,0,0,4.72,1.5A17.45,17.45,0,0,0,510,271a15.08,15.08,0,0,0,2.95-1l1.82,5a19.75,19.75,0,0,1-4.05,1.43,25.37,25.37,0,0,1-5.95.59,15.13,15.13,0,0,1-5.73-1,11.11,11.11,0,0,1-4.22-2.92,13.12,13.12,0,0,1-2.62-4.59,18.83,18.83,0,0,1-.91-6,20,20,0,0,1,.83-5.93,12.79,12.79,0,0,1,2.44-4.56,10.55,10.55,0,0,1,4-2.9,13.55,13.55,0,0,1,5.36-1q6.12,0,9.1,3.91t2.72,11Zm8-10.77a3.91,3.91,0,0,0-3.42-1.71,4.49,4.49,0,0,0-3.91,2.12c-.95,1.42-1.35,3.58-1.22,6.48l9.75-1.45Q508.15,256.3,507,254.59Z"/><path class="cls-6" d="M537.21,271.58a8,8,0,0,1-2.09,2.8,10.14,10.14,0,0,1-3.34,1.89,13.21,13.21,0,0,1-4.46.7,18.55,18.55,0,0,1-4.74-.57,11.19,11.19,0,0,1-3.44-1.45l2.07-5.13a7.33,7.33,0,0,0,2.12,1.11,8.22,8.22,0,0,0,2.85.5,3.62,3.62,0,0,0,2.51-.86,2.81,2.81,0,0,0,1-2.2,3.29,3.29,0,0,0-.8-2.28,7.52,7.52,0,0,0-2.78-1.66,14.79,14.79,0,0,1-3.13-1.66,7.85,7.85,0,0,1-1.92-1.89,6.05,6.05,0,0,1-1-2.07,9.23,9.23,0,0,1-.26-2.15,8.42,8.42,0,0,1,.68-3.34,8.24,8.24,0,0,1,1.89-2.75,8.85,8.85,0,0,1,2.93-1.84,10.33,10.33,0,0,1,3.83-.67,17.87,17.87,0,0,1,4.51.49,12.79,12.79,0,0,1,3.52,1.53l-2,4.61a6.76,6.76,0,0,0-1.75-1,6.39,6.39,0,0,0-2.47-.47,3.11,3.11,0,0,0-2.39.85,2.94,2.94,0,0,0-.8,2,2.89,2.89,0,0,0,1,2.26,9.86,9.86,0,0,0,2.6,1.58,19,19,0,0,1,3.3,1.78,8.44,8.44,0,0,1,2,1.92,6.35,6.35,0,0,1,1,2.12,10,10,0,0,1,.28,2.36A8.11,8.11,0,0,1,537.21,271.58Z"/></g></g></svg>