<svg width="30" height="31" viewBox="0 0 30 31" fill="none" xmlns="http://www.w3.org/2000/svg">
<path d="M12.638 22.2829V12.3829C12.638 11.2909 12.962 10.4209 13.61 9.77288C14.258 9.11288 15.182 8.78288 16.382 8.78288C16.79 8.78288 17.18 8.82488 17.552 8.90888C17.936 8.99288 18.26 9.12488 18.524 9.30488L17.786 11.3389C17.63 11.2309 17.456 11.1469 17.264 11.0869C17.072 11.0269 16.868 10.9969 16.652 10.9969C16.244 10.9969 15.926 11.1169 15.698 11.3569C15.482 11.5849 15.374 11.9329 15.374 12.4009V13.3009L15.446 14.5069V22.2829H12.638ZM11.144 14.9749V12.8149H17.858V14.9749H11.144Z" fill="#323333"/>
<path fill-rule="evenodd" clip-rule="evenodd" d="M15 29.2829C22.732 29.2829 29 23.0149 29 15.2829C29 7.55089 22.732 1.28288 15 1.28288C7.26801 1.28288 1 7.55089 1 15.2829C1 23.0149 7.26801 29.2829 15 29.2829ZM15 30.2829C23.2843 30.2829 30 23.5671 30 15.2829C30 6.9986 23.2843 0.282875 15 0.282875C6.71573 0.282875 0 6.9986 0 15.2829C0 23.5671 6.71573 30.2829 15 30.2829Z" fill="#323333"/>
</svg>
