<svg width="60" height="60" viewBox="0 0 60 60" fill="none" xmlns="http://www.w3.org/2000/svg">
<g clip-path="url(#clip0_22_747)">
<path d="M59 0H1C0.4 0 0 0.4 0 1V47C0 47.6 0.4 48 1 48H5V59C5 59.6 5.4 60 6 60H54C54.6 60 55 59.6 55 59V48H59C59.6 48 60 47.6 60 47V1C60 0.4 59.6 0 59 0ZM58 2V8H2V2H58ZM53 24H7V18H53V24ZM7 58V26H53V58H7ZM55 46V17C55 16.4 54.6 16 54 16H6C5.4 16 5 16.4 5 17V46H2V10H58V46H55Z" fill="black"/>
<path d="M8 4H4V6H8V4Z" fill="black"/>
<path d="M14 4H10V6H14V4Z" fill="black"/>
<path d="M13 20H9V22H13V20Z" fill="black"/>
<path d="M19 20H15V22H19V20Z" fill="black"/>
<path d="M56 4H54V6H56V4Z" fill="black"/>
<path d="M52 4H50V6H52V4Z" fill="black"/>
<path d="M51 20H49V22H51V20Z" fill="black"/>
<path d="M47 20H45V22H47V20Z" fill="black"/>
<path d="M11 47H27C27.6 47 28 46.6 28 46V30C28 29.4 27.6 29 27 29H11C10.4 29 10 29.4 10 30V46C10 46.6 10.4 47 11 47ZM12 39H18V45H12V39ZM20 45V39H26V45H20ZM26 37H20V31H26V37ZM18 31V37H12V31H18Z" fill="black"/>
<path d="M35 29H31V31H35V29Z" fill="black"/>
<path d="M33 33H31V35H33V33Z" fill="black"/>
<path d="M37 33H35V35H37V33Z" fill="black"/>
<path d="M41 33H39V35H41V33Z" fill="black"/>
<path d="M45 33H43V35H45V33Z" fill="black"/>
<path d="M49 33H47V35H49V33Z" fill="black"/>
<path d="M42 29H38V31H42V29Z" fill="black"/>
<path d="M49 29H45V31H49V29Z" fill="black"/>
<path d="M49 37H31V39H49V37Z" fill="black"/>
<path d="M49 41H31V43H49V41Z" fill="black"/>
<path d="M49 45H31V47H49V45Z" fill="black"/>
<path d="M12 51H10V53H12V51Z" fill="black"/>
<path d="M16 51H14V53H16V51Z" fill="black"/>
<path d="M20 51H18V53H20V51Z" fill="black"/>
<path d="M49 51H22V53H49V51Z" fill="black"/>
</g>
<defs>
<clipPath id="clip0_22_747">
<rect width="60" height="60" fill="white"/>
</clipPath>
</defs>
</svg>
