<svg width="60" height="60" viewBox="0 0 60 60" fill="none" xmlns="http://www.w3.org/2000/svg">
<g clip-path="url(#clip0_22_744)">
<path d="M6.10126 17.3513L5.14876 16.3988L7.48314 14.0625L5.14876 11.7263L6.10314 10.7719L9.39189 14.0625L6.10126 17.3513ZM5.62501 3.75001C5.10751 3.75001 4.68751 4.17001 4.68751 4.68751C4.68751 5.20501 5.10751 5.62501 5.62501 5.62501C6.14251 5.62501 6.56251 5.20501 6.56251 4.68751C6.56251 4.17001 6.14251 3.75001 5.62501 3.75001ZM10.3125 4.68751C10.3125 5.20501 9.89251 5.62501 9.37501 5.62501C8.85751 5.62501 8.43751 5.20501 8.43751 4.68751C8.43751 4.17001 8.85751 3.75001 9.37501 3.75001C9.89251 3.75001 10.3125 4.17001 10.3125 4.68751ZM14.0625 4.68751C14.0625 5.20501 13.6425 5.62501 13.125 5.62501C12.6075 5.62501 12.1875 5.20501 12.1875 4.68751C12.1875 4.17001 12.6075 3.75001 13.125 3.75001C13.6425 3.75001 14.0625 4.17001 14.0625 4.68751ZM34.6875 12.1875C34.6875 12.705 34.2675 13.125 33.75 13.125C33.2325 13.125 32.8125 12.705 32.8125 12.1875C32.8125 11.67 33.2325 11.25 33.75 11.25C34.2675 11.25 34.6875 11.67 34.6875 12.1875ZM38.4375 12.1875C38.4375 12.705 38.0175 13.125 37.5 13.125C36.9825 13.125 36.5625 12.705 36.5625 12.1875C36.5625 11.67 36.9825 11.25 37.5 11.25C38.0175 11.25 38.4375 11.67 38.4375 12.1875ZM42.1875 12.1875C42.1875 12.705 41.7675 13.125 41.25 13.125C40.7325 13.125 40.3125 12.705 40.3125 12.1875C40.3125 11.67 40.7325 11.25 41.25 11.25C41.7675 11.25 42.1875 11.67 42.1875 12.1875ZM10.3125 45.9375C10.3125 46.455 9.89251 46.875 9.37501 46.875C8.85751 46.875 8.43751 46.455 8.43751 45.9375C8.43751 45.42 8.85751 45 9.37501 45C9.89251 45 10.3125 45.42 10.3125 45.9375ZM24.375 26.925H1.87501C1.50189 26.925 1.20001 26.6231 1.20001 26.25V1.87501C1.20001 1.50189 1.50189 1.20001 1.87501 1.20001H24.375C24.7481 1.20001 25.05 1.50189 25.05 1.87501V26.25C25.05 26.6231 24.7481 26.925 24.375 26.925ZM23.7 8.17501H2.55001V25.575H23.7V8.17501ZM23.7 2.55001H2.55001V6.82689H23.7V2.55001ZM58.8 9.37501V41.25C58.8 41.6231 58.4981 41.925 58.125 41.925H36.9206C36.3563 42.8081 35.6269 43.5844 34.7606 44.2031C40.1513 46.1719 43.7963 51.2869 43.7963 57.1444L43.8 58.1213L42.4481 58.125L42.4444 57.1463C42.4444 51.375 38.5256 46.4044 32.9138 45.0525C32.6325 44.9869 32.4263 44.7469 32.4 44.46C32.3738 44.1731 32.5313 43.8994 32.7956 43.7831C35.2613 42.6731 36.855 40.2206 36.855 37.5319C36.855 33.75 33.78 30.675 30 30.675C26.2163 30.675 23.1375 33.75 23.1375 37.5319C23.1375 40.2206 24.7313 42.6731 27.1988 43.7831C27.4631 43.8994 27.6206 44.1731 27.5944 44.46C27.5681 44.7469 27.36 44.9869 27.0806 45.0525C21.4688 46.4044 17.5481 51.375 17.5481 57.1444L17.55 58.1213L16.2 58.125L16.1981 57.1463C16.1981 51.2869 19.8413 46.17 25.2338 44.2031C23.1 42.6806 21.7875 40.2019 21.7875 37.53C21.7875 33.2325 25.11 29.6963 29.325 29.3513V9.37501C29.325 9.00189 29.6269 8.70001 30 8.70001H58.125C58.4981 8.70001 58.8 9.00189 58.8 9.37501ZM57.45 15.675H30.675V29.3531C34.8863 29.6981 38.2069 33.2344 38.2069 37.5319C38.2069 38.5931 38.0006 39.6225 37.6163 40.575H57.45V15.675ZM57.45 10.05H30.675V14.325H57.45V10.05ZM41.25 21.825H33.75V23.175H41.25V21.825ZM44.325 32.8125C44.325 29.8556 46.7306 27.45 49.6875 27.45C52.6444 27.45 55.05 29.8556 55.05 32.8125C55.05 35.7694 52.6444 38.175 49.6875 38.175C46.7306 38.175 44.325 35.7694 44.325 32.8125ZM52.9538 30.4988L50.3606 33.0919L50.3531 36.7575C52.2469 36.4369 53.6981 34.7963 53.6981 32.8125C53.7 31.95 53.4188 31.1531 52.9538 30.4988ZM45.675 32.8125C45.675 34.7906 47.1169 36.4275 49.0013 36.7556L49.0125 32.5313L51.9975 29.5444C51.3431 29.0794 50.5481 28.8 49.6856 28.8C47.475 28.8 45.675 30.6 45.675 32.8125ZM15 18.075H9.37501V19.425H15V18.075ZM6.56251 40.05H12.1875V38.7H6.56251V40.05ZM6.56251 36.3H12.1875V34.95H6.56251V36.3ZM41.25 25.575H33.75V26.925H41.25V25.575ZM54.375 21.825H46.875V23.175H54.375V21.825ZM54.375 18.075H46.875V19.425H54.375V18.075ZM41.25 18.075H33.75V19.425H41.25V18.075ZM15.675 32.97V47.655C15.675 48.6319 14.8819 49.425 13.905 49.425H4.84501C3.86814 49.425 3.07501 48.63 3.07501 47.655V32.97C3.07501 31.9931 3.86814 31.2 4.84501 31.2H13.905C14.8819 31.2 15.675 31.9931 15.675 32.97ZM14.325 43.8H4.42501V47.655C4.42501 47.8856 4.61439 48.075 4.84501 48.075H13.905C14.1375 48.075 14.325 47.8856 14.325 47.655V43.8ZM14.325 32.97C14.325 32.7394 14.1356 32.55 13.905 32.55H4.84501C4.61251 32.55 4.42501 32.7394 4.42501 32.97V42.45H14.325V32.97Z" fill="black"/>
</g>
<defs>
<clipPath id="clip0_22_744">
<rect width="60" height="60" fill="white"/>
</clipPath>
</defs>
</svg>
