<svg width="97" height="16" viewBox="0 0 97 16" fill="none" xmlns="http://www.w3.org/2000/svg">
<path d="M7.14 11.07L0 8.355V6.405L7.14 3.69V5.565L0.705 7.905V6.855L7.14 9.195V11.07Z" fill="#11393C"/>
<path d="M11.4695 12.63V4.11H8.10949V2.13H17.2595V4.11H13.8995V12.63H11.4695Z" fill="#11393C"/>
<path d="M18.2262 12.63V4.56H20.4612V6.84H19.7888C20.0288 6.27 20.7712 5.18 21.3012 4.89C21.8312 4.59 22.4762 4.44 23.2362 4.44V6.6C23.1362 6.59 23.0462 6.585 22.9662 6.585C22.8862 6.575 22.8012 6.57 22.7112 6.57C22.0712 6.57 21.5512 6.755 21.1512 7.125C20.7612 7.485 20.5662 8.05 20.5662 8.82V12.63H18.2262Z" fill="#11393C"/>
<path d="M24.6422 12.63V4.56H26.9822V12.63H24.6422ZM25.8122 3.435C25.3822 3.435 25.0322 3.31 24.7622 3.06C24.4922 2.81 24.3572 2.5 24.3572 2.13C24.3572 1.76 24.4922 1.45 24.7622 1.2C25.0322 0.95 25.3822 0.825 25.8122 0.825C26.2422 0.825 26.5922 0.945 26.8622 1.185C27.1322 1.415 27.2672 1.715 27.2672 2.085C27.2672 2.475 27.1322 2.8 26.8622 3.06C26.6022 3.31 26.2522 3.435 25.8122 3.435Z" fill="#11393C"/>
<path d="M34.0589 4.44C34.6989 4.44 35.2689 4.57 35.7689 4.83C36.2789 5.08 36.6789 5.47 36.9689 6C37.2589 6.52 37.4039 7.19 37.4039 8.01V12.63H35.0639V8.37C35.0639 7.72 34.9189 7.24 34.6289 6.93C34.3489 6.62 33.9489 6.465 33.4289 6.465C33.0589 6.465 32.7239 6.545 32.4239 6.705C32.1339 6.855 31.9039 7.09 31.7339 7.41C31.5739 7.73 31.4939 8.14 31.4939 8.64V12.63H29.1539V4.56H31.3889V6.795L30.7089 6.84C30.9989 6.3 31.6739 5.165 32.2139 4.875C32.7539 4.585 33.3689 4.44 34.0589 4.44Z" fill="#11393C"/>
<path d="M39.525 12.63V4.56H41.865V12.63H39.525ZM40.695 3.435C40.265 3.435 39.915 3.31 39.645 3.06C39.375 2.81 39.24 2.5 39.24 2.13C39.24 1.76 39.375 1.45 39.645 1.2C39.915 0.95 40.265 0.825 40.695 0.825C41.125 0.825 41.475 0.945 41.745 1.185C42.015 1.415 42.15 1.715 42.15 2.085C42.15 2.475 42.015 2.8 41.745 3.06C41.485 3.31 41.135 3.435 40.695 3.435Z" fill="#11393C"/>
<path d="M47.3367 12.75C46.3867 12.75 45.6467 12.51 45.1167 12.03C44.5867 11.54 44.3217 10.815 44.3217 9.855V2.775H46.6617V9.825C46.6617 10.165 46.7517 10.43 46.9317 10.62C47.1117 10.8 47.3567 10.89 47.6667 10.89C48.0367 10.89 48.3517 10.79 48.6117 10.59L49.2417 12.24C49.0017 12.41 48.7117 12.54 48.3717 12.63C48.0417 12.71 47.6967 12.75 47.3367 12.75ZM43.0767 6.54V4.74H48.6717V6.54H43.0767Z" fill="#11393C"/>
<path d="M51.4288 15.66C51.0088 15.66 50.5938 15.595 50.1838 15.465C49.7738 15.335 49.4388 15.155 49.1788 14.925L50.0338 13.26C50.2138 13.42 50.4188 13.545 50.6488 13.635C50.8888 13.725 51.1238 13.77 51.3538 13.77C51.6838 13.77 51.9438 13.69 52.1338 13.53C52.3338 13.38 52.5138 13.125 52.6738 12.765L53.0938 11.775L53.2738 11.52L56.1688 4.56H58.4188L54.7738 13.125C54.5138 13.775 54.2138 14.285 53.8738 14.655C53.5438 15.025 53.1738 15.285 52.7638 15.435C52.3638 15.585 51.9188 15.66 51.4288 15.66ZM52.8088 12.945L49.2088 4.56H51.6238L54 11.5L52.8088 12.945Z" fill="#11393C"/>
<path d="M66.0367 6.855H71.0767V8.805H66.0367V6.855ZM66.2167 12.63H63.7867V2.13H71.7217V4.08H66.2167V12.63Z" fill="#11393C"/>
<path d="M76.8168 12.81C75.9768 12.81 75.1718 12.7 74.4018 12.48C73.6318 12.25 73.0118 11.955 72.5418 11.595L73.3668 9.765C73.8168 10.085 74.3468 10.35 74.9568 10.56C75.5768 10.76 76.2018 10.86 76.8318 10.86C77.3118 10.86 77.6968 10.815 77.9868 10.725C78.2868 10.625 78.5068 10.49 78.6468 10.32C78.7868 10.15 78.8568 9.955 78.8568 9.735C78.8568 9.455 78.7468 9.235 78.5268 9.075C78.3068 8.905 78.0168 8.77 77.6568 8.67C77.2968 8.56 76.8968 8.46 76.4568 8.37C76.0268 8.27 75.5918 8.15 75.1518 8.01C74.7218 7.87 74.3268 7.69 73.9668 7.47C73.6068 7.25 73.3118 6.96 73.0818 6.6C72.8618 6.24 72.7518 5.78 72.7518 5.22C72.7518 4.62 72.9118 4.075 73.2318 3.585C73.5618 3.085 74.0518 2.69 74.7018 2.4C75.3618 2.1 76.1868 1.95 77.1768 1.95C77.8368 1.95 78.4868 2.03 79.1268 2.19C79.7668 2.34 80.3318 2.57 80.8218 2.88L80.0718 4.725C79.5818 4.445 79.0918 4.24 78.6018 4.11C78.1118 3.97 77.6318 3.9 77.1618 3.9C76.6918 3.9 76.3068 3.955 76.0068 4.065C75.7068 4.175 75.4918 4.32 75.3618 4.5C75.2318 4.67 75.1668 4.87 75.1668 5.1C75.1668 5.37 75.2768 5.59 75.4968 5.76C75.7168 5.92 76.0068 6.05 76.3668 6.15C76.7268 6.25 77.1218 6.35 77.5518 6.45C77.9918 6.55 78.4268 6.665 78.8568 6.795C79.2968 6.925 79.6968 7.1 80.0568 7.32C80.4168 7.54 80.7068 7.83 80.9268 8.19C81.1568 8.55 81.2718 9.005 81.2718 9.555C81.2718 10.145 81.1068 10.685 80.7768 11.175C80.4468 11.665 79.9518 12.06 79.2918 12.36C78.6418 12.66 77.8168 12.81 76.8168 12.81Z" fill="#11393C"/>
<path d="M85.4402 14.13L90.3902 0H92.4752L87.5252 14.13H85.4402Z" fill="#11393C"/>
<path d="M88 11.5L89.0976 9.195L95.5326 6.855V7.905L89.0976 5.565V3.69L96.2376 6.405V8.355L88 11.5Z" fill="#11393C"/>
</svg>
