<svg width="300" height="301" viewBox="0 0 300 301" fill="none" xmlns="http://www.w3.org/2000/svg">
<g clip-path="url(#clip0_18_698)">
<path d="M330.612 150.526C330.669 185.934 316.867 220.21 291.665 247.242C290.75 248.228 289.817 249.199 288.868 250.164C277.694 261.567 264.678 271.366 250.264 279.225C246.958 281.026 243.579 282.723 240.128 284.317C239.78 284.477 239.425 284.638 239.076 284.794C238.658 284.986 238.235 285.173 237.812 285.36C229.079 289.238 219.983 292.403 210.631 294.817C209.658 295.066 208.684 295.308 207.708 295.543C195.406 298.497 182.768 300.15 170.048 300.469C169.384 300.484 168.732 300.495 168.103 300.505C167.88 300.51 167.663 300.516 167.445 300.516C166.73 300.521 166.021 300.526 165.306 300.526C151.901 300.535 138.544 299.066 125.53 296.15C124.225 295.86 122.927 295.554 121.634 295.232C114.825 293.545 108.143 291.459 101.632 288.988C98.1997 287.69 94.8288 286.291 91.5189 284.789C90.7696 284.446 90.0202 284.104 89.2824 283.751C88.9678 283.611 88.6589 283.46 88.35 283.315C70.7088 274.866 54.8886 263.603 41.6468 250.066C40.7316 249.137 39.8336 248.192 38.947 247.242C24.357 231.545 13.4738 213.298 6.97147 193.629C0.469138 173.96 -1.51388 153.29 1.14525 132.898C3.80437 112.505 11.049 92.8257 22.4305 75.0773C33.8119 57.3289 49.0878 41.8898 67.3121 29.7162C68.2502 29.0882 69.194 28.4653 70.1492 27.8581C70.3379 27.7387 70.5267 27.6193 70.7155 27.4999C87.4996 16.8318 106.338 9.11203 126.256 4.7404C127.389 4.48608 128.521 4.24733 129.665 4.02415C151.239 -0.25802 173.535 -0.612625 195.261 2.98089C196.4 3.17293 197.538 3.37016 198.67 3.58297C218.41 7.25694 237.237 14.1941 254.211 24.0484C254.588 24.2664 254.966 24.4844 255.343 24.7127C256.104 25.1591 256.865 25.6158 257.614 26.0778C280.1 39.7949 298.52 58.3219 311.25 80.0249C323.981 101.728 330.63 125.94 330.612 150.526V150.526Z" fill="#F2F2F2"/>
<path d="M112.111 228.126L64.1678 232.382L63.654 232.429V27.8581C63.8253 27.7387 63.9965 27.6193 64.1678 27.5C74.1596 20.5111 84.9681 14.7695 96.353 10.4031L98.8028 44.192L99.026 47.2854L101.45 80.7941L102.197 91.102L112.023 226.933L112.111 228.126Z" fill="#CCCCCC"/>
<path d="M230.673 24.0484C231.016 24.2663 231.358 24.4843 231.701 24.7127V232.429L230.673 232.336L183.249 228.126L183.337 226.932L193.163 91.102L193.91 80.794L196.334 47.2854L196.557 44.192L199.126 8.75769C210.206 12.5982 220.794 17.7304 230.673 24.0484V24.0484Z" fill="#CCCCCC"/>
<path d="M230.673 24.0483V235.263C230.673 239.316 227.881 242.612 224.445 242.612H70.3962C67.5519 242.612 65.1384 240.349 64.4066 237.261C64.2468 236.607 64.1666 235.936 64.1678 235.263V27.4999C63.9965 27.6193 63.8253 27.7387 63.654 27.858C62.7872 28.4653 61.9308 29.0881 61.0796 29.7162V235.263C61.0336 238.342 62.1834 241.319 64.2872 243.567C65.3903 244.723 66.7857 245.559 68.3253 245.986C69.0002 246.17 69.6967 246.262 70.3962 246.261H224.445C225.146 246.262 225.844 246.169 226.521 245.986C230.663 244.87 233.761 240.489 233.761 235.263V26.0777C233.081 25.6158 232.391 25.1591 231.701 24.7127C231.358 24.4843 231.016 24.2663 230.673 24.0483Z" fill="#CCCCCC"/>
<path d="M232.218 44.1941H62.6238V47.287H232.218V44.1941Z" fill="#CCCCCC"/>
<path d="M114.566 4.74043C115.593 4.4861 116.621 4.24735 117.659 4.02417V88.0086H114.566V4.74043Z" fill="#CCCCCC"/>
<path d="M177.182 2.98083C178.215 3.17288 179.247 3.37011 180.275 3.58291V88.0085H177.182V2.98083Z" fill="#CCCCCC"/>
<path d="M251.548 226.932H48.4464C44.7544 226.932 41.2137 228.399 38.6031 231.01C35.9926 233.62 34.5259 237.161 34.5259 240.853C34.5259 244.545 35.9926 248.086 38.6031 250.696C41.2137 253.307 44.7544 254.773 48.4464 254.773H251.548C253.525 254.774 255.48 254.352 257.28 253.537C259.081 252.721 260.687 251.531 261.991 250.045C262.582 249.373 263.106 248.647 263.559 247.875C263.909 247.284 264.213 246.666 264.467 246.028C265.315 243.916 265.632 241.628 265.39 239.365C265.148 237.103 264.355 234.934 263.08 233.049C261.804 231.164 260.086 229.621 258.076 228.554C256.065 227.488 253.824 226.931 251.548 226.932V226.932Z" fill="#CCCCCC"/>
<path d="M232.218 80.7935H63.6548V91.1032H232.218V80.7935Z" fill="#CCCCCC"/>
<path d="M146.39 77.7006H149.483C150.228 77.7006 150.965 77.8472 151.653 78.1322C152.341 78.4172 152.966 78.8348 153.493 79.3614C154.019 79.8879 154.437 80.513 154.722 81.201C155.007 81.8889 155.153 82.6263 155.153 83.3709V83.3709H140.72C140.72 81.867 141.317 80.4248 142.381 79.3614C143.444 78.298 144.886 77.7006 146.39 77.7006H146.39Z" fill="#CCCCCC"/>
<path d="M264.659 247.242C260.15 252.585 255.273 257.606 250.064 262.268H49.936C44.7267 257.606 39.8498 252.585 35.3408 247.242H264.659Z" fill="#3F3D56"/>
<path d="M166.754 195.199H133.059C132.877 195.197 132.697 195.225 132.524 195.282C132.158 195.395 131.839 195.622 131.612 195.931C131.385 196.239 131.262 196.612 131.263 196.995V250.227H168.555V196.995C168.555 196.759 168.508 196.525 168.418 196.307C168.327 196.088 168.194 195.89 168.027 195.724C167.86 195.557 167.661 195.425 167.443 195.335C167.225 195.245 166.991 195.198 166.754 195.199ZM154.002 221.462C154.003 222.325 153.718 223.165 153.192 223.849C152.69 224.514 151.992 225.004 151.197 225.251C150.401 225.497 149.548 225.488 148.758 225.224C147.968 224.961 147.281 224.456 146.793 223.781C146.306 223.106 146.042 222.295 146.04 221.462V215.285C146.05 214.236 146.473 213.233 147.219 212.494C147.964 211.756 148.971 211.341 150.021 211.341C151.07 211.341 152.077 211.756 152.823 212.494C153.568 213.233 153.992 214.236 154.002 215.285V221.462Z" fill="#2F2E41"/>
<path d="M131.149 248.524V253.657C131.149 253.924 131.254 254.179 131.442 254.368C131.63 254.556 131.884 254.663 132.151 254.664H167.668C167.934 254.662 168.188 254.555 168.376 254.367C168.563 254.178 168.669 253.923 168.67 253.657V248.524H131.149Z" fill="#3F3D56"/>
<path d="M222.55 112.128H78.519C77.2815 112.13 76.095 112.621 75.2195 113.496C74.344 114.371 73.8507 115.557 73.8477 116.794V213.988C73.8487 215.226 74.3412 216.414 75.217 217.29C76.0928 218.166 77.2804 218.658 78.519 218.659H222.55C223.789 218.658 224.976 218.166 225.852 217.29C226.728 216.414 227.22 215.226 227.221 213.988V116.794C227.219 115.557 226.725 114.371 225.85 113.496C224.974 112.621 223.788 112.13 222.55 112.128V112.128Z" fill="#3F3D56"/>
<path d="M221.346 115.502H79.718C79.0554 115.503 78.4205 115.767 77.9524 116.236C77.4844 116.705 77.2215 117.341 77.2215 118.003V212.789C77.2226 213.451 77.486 214.085 77.9539 214.553C78.4219 215.021 79.0562 215.284 79.718 215.285H221.346C222.008 215.284 222.642 215.021 223.11 214.553C223.578 214.085 223.841 213.451 223.843 212.789V118.003C223.843 117.341 223.58 116.705 223.112 116.236C222.644 115.767 222.009 115.503 221.346 115.502V115.502Z" fill="#20D8BE"/>
<path d="M195.28 254.581L193.972 248.368C193.918 248.115 193.801 247.879 193.633 247.683C193.464 247.486 193.249 247.334 193.007 247.242C192.832 247.173 192.645 247.138 192.457 247.138H110.808C110.62 247.138 110.433 247.173 110.258 247.242C110.016 247.334 109.801 247.486 109.632 247.683C109.463 247.879 109.347 248.115 109.292 248.368L107.984 254.581C107.937 254.807 107.941 255.04 107.995 255.264C108.049 255.488 108.153 255.697 108.298 255.876C108.443 256.055 108.626 256.199 108.834 256.299C109.042 256.398 109.27 256.449 109.5 256.45H193.76C193.991 256.451 194.219 256.4 194.428 256.3C194.636 256.2 194.82 256.054 194.964 255.874C195.109 255.695 195.213 255.487 195.268 255.263C195.323 255.04 195.327 254.807 195.28 254.581V254.581Z" fill="#2F2E41"/>
<path d="M113.748 248.257H111.66C111.52 248.257 111.406 248.371 111.406 248.511V249.561C111.406 249.701 111.52 249.814 111.66 249.814H113.748C113.888 249.814 114.002 249.701 114.002 249.561V248.511C114.002 248.371 113.888 248.257 113.748 248.257Z" fill="#3F3D56"/>
<path d="M118.938 248.257H116.85C116.71 248.257 116.597 248.371 116.597 248.511V249.561C116.597 249.701 116.71 249.814 116.85 249.814H118.938C119.078 249.814 119.192 249.701 119.192 249.561V248.511C119.192 248.371 119.078 248.257 118.938 248.257Z" fill="#3F3D56"/>
<path d="M124.129 248.257H122.04C121.9 248.257 121.787 248.371 121.787 248.511V249.561C121.787 249.701 121.9 249.814 122.04 249.814H124.129C124.269 249.814 124.382 249.701 124.382 249.561V248.511C124.382 248.371 124.269 248.257 124.129 248.257Z" fill="#3F3D56"/>
<path d="M129.319 248.257H127.231C127.091 248.257 126.977 248.371 126.977 248.511V249.561C126.977 249.701 127.091 249.814 127.231 249.814H129.319C129.459 249.814 129.572 249.701 129.572 249.561V248.511C129.572 248.371 129.459 248.257 129.319 248.257Z" fill="#3F3D56"/>
<path d="M134.509 248.257H132.421C132.281 248.257 132.168 248.371 132.168 248.511V249.561C132.168 249.701 132.281 249.814 132.421 249.814H134.509C134.649 249.814 134.763 249.701 134.763 249.561V248.511C134.763 248.371 134.649 248.257 134.509 248.257Z" fill="#3F3D56"/>
<path d="M139.7 248.257H137.611C137.471 248.257 137.358 248.371 137.358 248.511V249.561C137.358 249.701 137.471 249.814 137.611 249.814H139.7C139.84 249.814 139.953 249.701 139.953 249.561V248.511C139.953 248.371 139.84 248.257 139.7 248.257Z" fill="#3F3D56"/>
<path d="M144.89 248.257H142.802C142.662 248.257 142.548 248.371 142.548 248.511V249.561C142.548 249.701 142.662 249.814 142.802 249.814H144.89C145.03 249.814 145.143 249.701 145.143 249.561V248.511C145.143 248.371 145.03 248.257 144.89 248.257Z" fill="#3F3D56"/>
<path d="M150.08 248.257H147.992C147.852 248.257 147.739 248.371 147.739 248.511V249.561C147.739 249.701 147.852 249.814 147.992 249.814H150.08C150.22 249.814 150.334 249.701 150.334 249.561V248.511C150.334 248.371 150.22 248.257 150.08 248.257Z" fill="#3F3D56"/>
<path d="M155.271 248.257H153.182C153.042 248.257 152.929 248.371 152.929 248.511V249.561C152.929 249.701 153.042 249.814 153.182 249.814H155.271C155.411 249.814 155.524 249.701 155.524 249.561V248.511C155.524 248.371 155.411 248.257 155.271 248.257Z" fill="#3F3D56"/>
<path d="M160.461 248.257H158.373C158.233 248.257 158.119 248.371 158.119 248.511V249.561C158.119 249.701 158.233 249.814 158.373 249.814H160.461C160.601 249.814 160.714 249.701 160.714 249.561V248.511C160.714 248.371 160.601 248.257 160.461 248.257Z" fill="#3F3D56"/>
<path d="M165.651 248.257H163.563C163.423 248.257 163.31 248.371 163.31 248.511V249.561C163.31 249.701 163.423 249.814 163.563 249.814H165.651C165.791 249.814 165.905 249.701 165.905 249.561V248.511C165.905 248.371 165.791 248.257 165.651 248.257Z" fill="#3F3D56"/>
<path d="M170.842 248.257H168.753C168.613 248.257 168.5 248.371 168.5 248.511V249.561C168.5 249.701 168.613 249.814 168.753 249.814H170.842C170.982 249.814 171.095 249.701 171.095 249.561V248.511C171.095 248.371 170.982 248.257 170.842 248.257Z" fill="#3F3D56"/>
<path d="M176.032 248.257H173.944C173.804 248.257 173.69 248.371 173.69 248.511V249.561C173.69 249.701 173.804 249.814 173.944 249.814H176.032C176.172 249.814 176.285 249.701 176.285 249.561V248.511C176.285 248.371 176.172 248.257 176.032 248.257Z" fill="#3F3D56"/>
<path d="M181.222 248.257H179.134C178.994 248.257 178.88 248.371 178.88 248.511V249.561C178.88 249.701 178.994 249.814 179.134 249.814H181.222C181.362 249.814 181.476 249.701 181.476 249.561V248.511C181.476 248.371 181.362 248.257 181.222 248.257Z" fill="#3F3D56"/>
<path d="M186.413 248.257H184.324C184.184 248.257 184.071 248.371 184.071 248.511V249.561C184.071 249.701 184.184 249.814 184.324 249.814H186.413C186.552 249.814 186.666 249.701 186.666 249.561V248.511C186.666 248.371 186.552 248.257 186.413 248.257Z" fill="#3F3D56"/>
<path d="M191.603 248.257H189.514C189.375 248.257 189.261 248.371 189.261 248.511V249.561C189.261 249.701 189.375 249.814 189.514 249.814H191.603C191.743 249.814 191.856 249.701 191.856 249.561V248.511C191.856 248.371 191.743 248.257 191.603 248.257Z" fill="#3F3D56"/>
<path d="M113.687 250.852H111.598C111.459 250.852 111.345 250.966 111.345 251.106V252.156C111.345 252.296 111.459 252.41 111.598 252.41H113.687C113.827 252.41 113.94 252.296 113.94 252.156V251.106C113.94 250.966 113.827 250.852 113.687 250.852Z" fill="#3F3D56"/>
<path d="M118.877 250.852H116.789C116.649 250.852 116.535 250.966 116.535 251.106V252.156C116.535 252.296 116.649 252.41 116.789 252.41H118.877C119.017 252.41 119.131 252.296 119.131 252.156V251.106C119.131 250.966 119.017 250.852 118.877 250.852Z" fill="#3F3D56"/>
<path d="M124.067 250.852H121.979C121.839 250.852 121.726 250.966 121.726 251.106V252.156C121.726 252.296 121.839 252.41 121.979 252.41H124.067C124.207 252.41 124.321 252.296 124.321 252.156V251.106C124.321 250.966 124.207 250.852 124.067 250.852Z" fill="#3F3D56"/>
<path d="M129.258 250.852H127.169C127.029 250.852 126.916 250.966 126.916 251.106V252.156C126.916 252.296 127.029 252.41 127.169 252.41H129.258C129.398 252.41 129.511 252.296 129.511 252.156V251.106C129.511 250.966 129.398 250.852 129.258 250.852Z" fill="#3F3D56"/>
<path d="M134.448 250.852H132.36C132.22 250.852 132.106 250.966 132.106 251.106V252.156C132.106 252.296 132.22 252.41 132.36 252.41H134.448C134.588 252.41 134.701 252.296 134.701 252.156V251.106C134.701 250.966 134.588 250.852 134.448 250.852Z" fill="#3F3D56"/>
<path d="M139.638 250.852H137.55C137.41 250.852 137.297 250.966 137.297 251.106V252.156C137.297 252.296 137.41 252.41 137.55 252.41H139.638C139.778 252.41 139.892 252.296 139.892 252.156V251.106C139.892 250.966 139.778 250.852 139.638 250.852Z" fill="#3F3D56"/>
<path d="M144.829 250.852H142.74C142.6 250.852 142.487 250.966 142.487 251.106V252.156C142.487 252.296 142.6 252.41 142.74 252.41H144.829C144.969 252.41 145.082 252.296 145.082 252.156V251.106C145.082 250.966 144.969 250.852 144.829 250.852Z" fill="#3F3D56"/>
<path d="M150.019 250.852H147.931C147.791 250.852 147.677 250.966 147.677 251.106V252.156C147.677 252.296 147.791 252.41 147.931 252.41H150.019C150.159 252.41 150.272 252.296 150.272 252.156V251.106C150.272 250.966 150.159 250.852 150.019 250.852Z" fill="#3F3D56"/>
<path d="M155.209 250.852H153.121C152.981 250.852 152.868 250.966 152.868 251.106V252.156C152.868 252.296 152.981 252.41 153.121 252.41H155.209C155.349 252.41 155.463 252.296 155.463 252.156V251.106C155.463 250.966 155.349 250.852 155.209 250.852Z" fill="#3F3D56"/>
<path d="M160.4 250.852H158.311C158.171 250.852 158.058 250.966 158.058 251.106V252.156C158.058 252.296 158.171 252.41 158.311 252.41H160.4C160.54 252.41 160.653 252.296 160.653 252.156V251.106C160.653 250.966 160.54 250.852 160.4 250.852Z" fill="#3F3D56"/>
<path d="M165.59 250.852H163.502C163.362 250.852 163.248 250.966 163.248 251.106V252.156C163.248 252.296 163.362 252.41 163.502 252.41H165.59C165.73 252.41 165.843 252.296 165.843 252.156V251.106C165.843 250.966 165.73 250.852 165.59 250.852Z" fill="#3F3D56"/>
<path d="M170.78 250.852H168.692C168.552 250.852 168.439 250.966 168.439 251.106V252.156C168.439 252.296 168.552 252.41 168.692 252.41H170.78C170.92 252.41 171.034 252.296 171.034 252.156V251.106C171.034 250.966 170.92 250.852 170.78 250.852Z" fill="#3F3D56"/>
<path d="M175.971 250.852H173.882C173.742 250.852 173.629 250.966 173.629 251.106V252.156C173.629 252.296 173.742 252.41 173.882 252.41H175.971C176.111 252.41 176.224 252.296 176.224 252.156V251.106C176.224 250.966 176.111 250.852 175.971 250.852Z" fill="#3F3D56"/>
<path d="M181.161 250.852H179.073C178.933 250.852 178.819 250.966 178.819 251.106V252.156C178.819 252.296 178.933 252.41 179.073 252.41H181.161C181.301 252.41 181.414 252.296 181.414 252.156V251.106C181.414 250.966 181.301 250.852 181.161 250.852Z" fill="#3F3D56"/>
<path d="M186.351 250.852H184.263C184.123 250.852 184.009 250.966 184.009 251.106V252.156C184.009 252.296 184.123 252.41 184.263 252.41H186.351C186.491 252.41 186.605 252.296 186.605 252.156V251.106C186.605 250.966 186.491 250.852 186.351 250.852Z" fill="#3F3D56"/>
<path d="M191.542 250.852H189.453C189.313 250.852 189.2 250.966 189.2 251.106V252.156C189.2 252.296 189.313 252.41 189.453 252.41H191.542C191.681 252.41 191.795 252.296 191.795 252.156V251.106C191.795 250.966 191.681 250.852 191.542 250.852Z" fill="#3F3D56"/>
<path d="M156.766 253.967H136.512C136.372 253.967 136.259 254.08 136.259 254.22V255.27C136.259 255.41 136.372 255.524 136.512 255.524H156.766C156.906 255.524 157.02 255.41 157.02 255.27V254.22C157.02 254.08 156.906 253.967 156.766 253.967Z" fill="#3F3D56"/>
<path d="M214.229 128.559H81.7084C81.5706 128.556 81.4395 128.499 81.3431 128.4C81.2468 128.302 81.1928 128.17 81.1928 128.032C81.1928 127.894 81.2468 127.762 81.3431 127.663C81.4395 127.565 81.5706 127.508 81.7084 127.505H214.229C214.367 127.508 214.498 127.565 214.594 127.663C214.691 127.762 214.745 127.894 214.745 128.032C214.745 128.17 214.691 128.302 214.594 128.4C214.498 128.499 214.367 128.556 214.229 128.559V128.559Z" fill="#3F3D56"/>
<path d="M90.7292 124.814C92.4349 124.814 93.8177 123.401 93.8177 121.657C93.8177 119.913 92.4349 118.5 90.7292 118.5C89.0235 118.5 87.6408 119.913 87.6408 121.657C87.6408 123.401 89.0235 124.814 90.7292 124.814Z" fill="#3F3D56"/>
<path d="M101.398 124.814C103.104 124.814 104.487 123.401 104.487 121.657C104.487 119.913 103.104 118.5 101.398 118.5C99.6927 118.5 98.31 119.913 98.31 121.657C98.31 123.401 99.6927 124.814 101.398 124.814Z" fill="#3F3D56"/>
<path d="M112.068 124.814C113.773 124.814 115.156 123.401 115.156 121.657C115.156 119.913 113.773 118.5 112.068 118.5C110.362 118.5 108.979 119.913 108.979 121.657C108.979 123.401 110.362 124.814 112.068 124.814Z" fill="#3F3D56"/>
<path d="M207.804 119.28H200.227C200.077 119.284 199.934 119.346 199.83 119.453C199.725 119.56 199.666 119.704 199.666 119.854C199.666 120.004 199.725 120.147 199.83 120.255C199.934 120.362 200.077 120.424 200.227 120.427H207.804C207.955 120.425 208.099 120.364 208.205 120.256C208.311 120.149 208.37 120.004 208.37 119.854C208.37 119.703 208.311 119.558 208.205 119.451C208.099 119.344 207.955 119.282 207.804 119.28Z" fill="#3F3D56"/>
<path d="M207.804 121.434H200.227C200.077 121.438 199.934 121.499 199.829 121.607C199.724 121.714 199.666 121.858 199.666 122.008C199.666 122.158 199.724 122.302 199.829 122.409C199.934 122.516 200.077 122.578 200.227 122.581H207.804C207.955 122.579 208.1 122.518 208.206 122.411C208.312 122.303 208.371 122.159 208.371 122.008C208.371 121.857 208.312 121.712 208.206 121.605C208.1 121.497 207.955 121.436 207.804 121.434V121.434Z" fill="#3F3D56"/>
<path d="M207.804 123.588H200.227C200.077 123.592 199.934 123.654 199.83 123.761C199.725 123.868 199.666 124.012 199.666 124.162C199.666 124.311 199.725 124.455 199.83 124.563C199.934 124.67 200.077 124.732 200.227 124.735H207.804C207.955 124.733 208.099 124.672 208.205 124.564C208.311 124.457 208.37 124.312 208.37 124.162C208.37 124.011 208.311 123.866 208.205 123.759C208.099 123.652 207.955 123.59 207.804 123.588V123.588Z" fill="#3F3D56"/>
<path d="M93.1351 140.806H90.4121C89.5866 140.806 88.9174 141.475 88.9174 142.301C88.9174 143.126 89.5866 143.796 90.4121 143.796H93.1351C93.9606 143.796 94.6299 143.126 94.6299 142.301C94.6299 141.475 93.9606 140.806 93.1351 140.806Z" fill="#E6E6E6"/>
<path d="M124.277 140.806H121.554C120.728 140.806 120.059 141.475 120.059 142.301C120.059 143.126 120.728 143.796 121.554 143.796H124.277C125.102 143.796 125.772 143.126 125.772 142.301C125.772 141.475 125.102 140.806 124.277 140.806Z" fill="#E6E6E6"/>
<path d="M133.1 140.806H130.378C129.552 140.806 128.883 141.475 128.883 142.301C128.883 143.126 129.552 143.796 130.378 143.796H133.1C133.926 143.796 134.595 143.126 134.595 142.301C134.595 141.475 133.926 140.806 133.1 140.806Z" fill="#E6E6E6"/>
<path d="M115.806 140.557H98.8828C98.0573 140.557 97.388 141.226 97.388 142.052C97.388 142.877 98.0573 143.546 98.8828 143.546H115.806C116.632 143.546 117.301 142.877 117.301 142.052C117.301 141.226 116.632 140.557 115.806 140.557Z" fill="#E6E6E6"/>
<path d="M157.329 140.557H140.405C139.58 140.557 138.911 141.226 138.911 142.052C138.911 142.877 139.58 143.546 140.405 143.546H157.329C158.154 143.546 158.824 142.877 158.824 142.052C158.824 141.226 158.154 140.557 157.329 140.557Z" fill="#E6E6E6"/>
<path d="M101.44 147.554H98.7167C97.8911 147.554 97.2219 148.223 97.2219 149.048C97.2219 149.874 97.8911 150.543 98.7167 150.543H101.44C102.265 150.543 102.934 149.874 102.934 149.048C102.934 148.223 102.265 147.554 101.44 147.554Z" fill="#E6E6E6"/>
<path d="M132.581 147.554H129.859C129.033 147.554 128.364 148.223 128.364 149.048C128.364 149.874 129.033 150.543 129.859 150.543H132.581C133.407 150.543 134.076 149.874 134.076 149.048C134.076 148.223 133.407 147.554 132.581 147.554Z" fill="#E6E6E6"/>
<path d="M141.405 147.554H138.682C137.856 147.554 137.187 148.223 137.187 149.048C137.187 149.874 137.856 150.543 138.682 150.543H141.405C142.231 150.543 142.9 149.874 142.9 149.048C142.9 148.223 142.231 147.554 141.405 147.554Z" fill="#E6E6E6"/>
<path d="M124.111 147.304H107.187C106.362 147.304 105.693 147.974 105.693 148.799C105.693 149.625 106.362 150.294 107.187 150.294H124.111C124.936 150.294 125.606 149.625 125.606 148.799C125.606 147.974 124.936 147.304 124.111 147.304Z" fill="#E6E6E6"/>
<path d="M165.633 147.304H148.71C147.884 147.304 147.215 147.974 147.215 148.799C147.215 149.625 147.884 150.294 148.71 150.294H165.633C166.459 150.294 167.128 149.625 167.128 148.799C167.128 147.974 166.459 147.304 165.633 147.304Z" fill="#E6E6E6"/>
<path d="M109.744 154.301H107.021C106.196 154.301 105.526 154.97 105.526 155.796C105.526 156.621 106.196 157.29 107.021 157.29H109.744C110.57 157.29 111.239 156.621 111.239 155.796C111.239 154.97 110.57 154.301 109.744 154.301Z" fill="#E6E6E6"/>
<path d="M140.886 154.301H138.163C137.337 154.301 136.668 154.97 136.668 155.796C136.668 156.621 137.337 157.29 138.163 157.29H140.886C141.711 157.29 142.381 156.621 142.381 155.796C142.381 154.97 141.711 154.301 140.886 154.301Z" fill="#E6E6E6"/>
<path d="M149.709 154.301H146.987C146.161 154.301 145.492 154.97 145.492 155.796C145.492 156.621 146.161 157.29 146.987 157.29H149.709C150.535 157.29 151.204 156.621 151.204 155.796C151.204 154.97 150.535 154.301 149.709 154.301Z" fill="#E6E6E6"/>
<path d="M132.415 154.052H115.492C114.666 154.052 113.997 154.721 113.997 155.547C113.997 156.372 114.666 157.041 115.492 157.041H132.415C133.241 157.041 133.91 156.372 133.91 155.547C133.91 154.721 133.241 154.052 132.415 154.052Z" fill="#E6E6E6"/>
<path d="M173.938 154.052H157.014C156.189 154.052 155.52 154.721 155.52 155.547C155.52 156.372 156.189 157.041 157.014 157.041H173.938C174.763 157.041 175.433 156.372 175.433 155.547C175.433 154.721 174.763 154.052 173.938 154.052Z" fill="#E6E6E6"/>
<path d="M118.049 161.048H115.326C114.5 161.048 113.831 161.718 113.831 162.543C113.831 163.369 114.5 164.038 115.326 164.038H118.049C118.874 164.038 119.543 163.369 119.543 162.543C119.543 161.718 118.874 161.048 118.049 161.048Z" fill="#E6E6E6"/>
<path d="M149.19 161.048H146.467C145.642 161.048 144.973 161.718 144.973 162.543C144.973 163.369 145.642 164.038 146.467 164.038H149.19C150.016 164.038 150.685 163.369 150.685 162.543C150.685 161.718 150.016 161.048 149.19 161.048Z" fill="#E6E6E6"/>
<path d="M158.014 161.048H155.291C154.465 161.048 153.796 161.718 153.796 162.543C153.796 163.369 154.465 164.038 155.291 164.038H158.014C158.84 164.038 159.509 163.369 159.509 162.543C159.509 161.718 158.84 161.048 158.014 161.048Z" fill="#E6E6E6"/>
<path d="M140.72 160.799H123.796C122.971 160.799 122.302 161.468 122.302 162.294C122.302 163.119 122.971 163.789 123.796 163.789H140.72C141.545 163.789 142.215 163.119 142.215 162.294C142.215 161.468 141.545 160.799 140.72 160.799Z" fill="#E6E6E6"/>
<path d="M124.277 187.879H121.554C120.728 187.879 120.059 188.548 120.059 189.374C120.059 190.199 120.728 190.868 121.554 190.868H124.277C125.102 190.868 125.772 190.199 125.772 189.374C125.772 188.548 125.102 187.879 124.277 187.879Z" fill="#E6E6E6"/>
<path d="M133.1 187.879H130.378C129.552 187.879 128.883 188.548 128.883 189.374C128.883 190.199 129.552 190.868 130.378 190.868H133.1C133.926 190.868 134.595 190.199 134.595 189.374C134.595 188.548 133.926 187.879 133.1 187.879Z" fill="#E6E6E6"/>
<path d="M157.329 188.128H140.405C139.58 188.128 138.911 188.797 138.911 189.623C138.911 190.449 139.58 191.118 140.405 191.118H157.329C158.154 191.118 158.824 190.449 158.824 189.623C158.824 188.797 158.154 188.128 157.329 188.128Z" fill="#E6E6E6"/>
<path d="M93.1351 187.879H90.4121C89.5866 187.879 88.9174 188.548 88.9174 189.374C88.9174 190.199 89.5866 190.868 90.4121 190.868H93.1351C93.9606 190.868 94.6299 190.199 94.6299 189.374C94.6299 188.548 93.9606 187.879 93.1351 187.879Z" fill="#E6E6E6"/>
<path d="M115.806 188.128H98.8828C98.0573 188.128 97.388 188.797 97.388 189.623C97.388 190.449 98.0573 191.118 98.8828 191.118H115.806C116.632 191.118 117.301 190.449 117.301 189.623C117.301 188.797 116.632 188.128 115.806 188.128Z" fill="#E6E6E6"/>
<path d="M101.44 181.131H98.7167C97.8911 181.131 97.2219 181.801 97.2219 182.626C97.2219 183.452 97.8911 184.121 98.7167 184.121H101.44C102.265 184.121 102.934 183.452 102.934 182.626C102.934 181.801 102.265 181.131 101.44 181.131Z" fill="#E6E6E6"/>
<path d="M132.581 181.131H129.859C129.033 181.131 128.364 181.801 128.364 182.626C128.364 183.452 129.033 184.121 129.859 184.121H132.581C133.407 184.121 134.076 183.452 134.076 182.626C134.076 181.801 133.407 181.131 132.581 181.131Z" fill="#E6E6E6"/>
<path d="M141.405 181.131H138.682C137.856 181.131 137.187 181.801 137.187 182.626C137.187 183.452 137.856 184.121 138.682 184.121H141.405C142.231 184.121 142.9 183.452 142.9 182.626C142.9 181.801 142.231 181.131 141.405 181.131Z" fill="#E6E6E6"/>
<path d="M124.111 181.381H107.187C106.362 181.381 105.693 182.05 105.693 182.876C105.693 183.701 106.362 184.37 107.187 184.37H124.111C124.936 184.37 125.606 183.701 125.606 182.876C125.606 182.05 124.936 181.381 124.111 181.381Z" fill="#E6E6E6"/>
<path d="M109.744 174.384H107.021C106.196 174.384 105.526 175.053 105.526 175.879C105.526 176.704 106.196 177.374 107.021 177.374H109.744C110.57 177.374 111.239 176.704 111.239 175.879C111.239 175.053 110.57 174.384 109.744 174.384Z" fill="#E6E6E6"/>
<path d="M140.886 174.384H138.163C137.337 174.384 136.668 175.053 136.668 175.879C136.668 176.704 137.337 177.374 138.163 177.374H140.886C141.711 177.374 142.381 176.704 142.381 175.879C142.381 175.053 141.711 174.384 140.886 174.384Z" fill="#E6E6E6"/>
<path d="M149.709 174.384H146.987C146.161 174.384 145.492 175.053 145.492 175.879C145.492 176.704 146.161 177.374 146.987 177.374H149.709C150.535 177.374 151.204 176.704 151.204 175.879C151.204 175.053 150.535 174.384 149.709 174.384Z" fill="#E6E6E6"/>
<path d="M132.415 174.633H115.492C114.666 174.633 113.997 175.303 113.997 176.128C113.997 176.954 114.666 177.623 115.492 177.623H132.415C133.241 177.623 133.91 176.954 133.91 176.128C133.91 175.303 133.241 174.633 132.415 174.633Z" fill="#E6E6E6"/>
<path d="M118.049 167.637H115.326C114.5 167.637 113.831 168.306 113.831 169.132C113.831 169.957 114.5 170.626 115.326 170.626H118.049C118.874 170.626 119.543 169.957 119.543 169.132C119.543 168.306 118.874 167.637 118.049 167.637Z" fill="#E6E6E6"/>
<path d="M149.19 167.637H146.467C145.642 167.637 144.973 168.306 144.973 169.132C144.973 169.957 145.642 170.626 146.467 170.626H149.19C150.016 170.626 150.685 169.957 150.685 169.132C150.685 168.306 150.016 167.637 149.19 167.637Z" fill="#E6E6E6"/>
<path d="M158.014 167.637H155.291C154.465 167.637 153.796 168.306 153.796 169.132C153.796 169.957 154.465 170.626 155.291 170.626H158.014C158.84 170.626 159.509 169.957 159.509 169.132C159.509 168.306 158.84 167.637 158.014 167.637Z" fill="#E6E6E6"/>
<path d="M140.72 167.886H123.796C122.971 167.886 122.302 168.555 122.302 169.381C122.302 170.206 122.971 170.875 123.796 170.875H140.72C141.545 170.875 142.215 170.206 142.215 169.381C142.215 168.555 141.545 167.886 140.72 167.886Z" fill="#E6E6E6"/>
<path d="M215.818 285.355C215.502 285.516 215.18 285.676 214.863 285.832C206.663 289.932 200.102 292.263 191.128 294.817C190.37 286.356 189.638 271.486 188.927 262.268C188.74 259.875 188.554 257.867 188.372 256.45C188.326 255.696 188.172 254.954 187.915 254.244L187.946 256.45L188.024 262.268L188.476 295.543C177.313 298.497 165.846 300.15 154.303 300.469C153.701 300.484 153.109 300.495 152.538 300.505C152.336 300.51 152.138 300.516 151.941 300.516C151.292 300.521 150.649 300.526 150 300.526C137.836 300.535 125.716 299.066 113.907 296.15C114.161 287.779 114.415 273.074 114.659 262.268C114.711 260.156 114.758 258.189 114.81 256.45C114.908 252.734 115.012 250.055 115.111 249.157C115.023 249.317 114.955 249.486 114.908 249.661C114.428 251.899 114.1 254.167 113.927 256.45C113.746 258.189 113.564 260.156 113.382 262.268C112.417 273.495 111.41 288.759 110.372 295.232C104.193 293.545 98.1303 291.459 92.2215 288.988C89.1073 287.69 86.0484 286.291 83.045 284.789C83.6159 281.052 84.2128 276.863 84.8253 272.519C85.3028 269.15 85.7958 265.689 86.2993 262.268C87.0778 256.984 87.8772 251.804 88.6868 247.242C89.8702 240.578 91.0848 235.221 92.2889 232.761C93.4308 230.426 94.5727 228.121 95.6782 225.915C96.0623 225.142 96.4464 224.379 96.8201 223.637C96.9083 223.46 96.9965 223.289 97.0848 223.118C97.8789 221.555 98.6471 220.061 99.3789 218.659C100.007 217.46 100.604 216.329 101.17 215.285C102.54 212.753 103.702 210.734 104.564 209.457C108.166 203.993 113.529 199.925 119.761 197.929L119.917 197.888L120.026 197.934L130.64 194.675L132.192 194.197L133.235 193.875L136.91 191.078L138.908 189.557L140.782 188.13L144.446 185.343L167.133 186.739L171.55 197.374L181.443 200.991L181.614 200.913L181.765 200.851L181.92 200.893C188.152 202.891 193.514 206.958 197.118 212.42C197.606 213.152 198.197 214.118 198.867 215.285C199.438 216.277 200.061 217.408 200.735 218.659C201.696 220.439 202.744 222.448 203.855 224.623C204.099 225.1 204.348 225.588 204.597 226.081C205.059 226.995 205.528 227.927 206.003 228.879C207.109 231.085 208.251 233.389 209.393 235.73C210.384 237.759 211.386 241.932 212.372 247.242C213.187 251.654 213.997 256.855 214.78 262.268C215.808 269.285 214.713 277.689 215.642 284.145C215.699 284.555 215.761 284.955 215.818 285.355Z" fill="#3F3D56"/>
<path d="M150.319 176.854C164.892 176.854 176.705 165.04 176.705 150.468C176.705 135.895 164.892 124.082 150.319 124.082C135.747 124.082 123.934 135.895 123.934 150.468C123.934 165.04 135.747 176.854 150.319 176.854Z" fill="#A0616A"/>
<path d="M193.832 115.502C193.311 114.284 192.617 113.148 191.772 112.128C187.765 107.233 180.478 105.079 172.998 110.872C171.559 110.55 170.058 110.636 168.664 111.121C168.007 111.359 167.39 111.699 166.837 112.128C165.705 113.011 164.821 114.174 164.273 115.502C163.98 116.203 163.788 116.942 163.702 117.697C161.854 116.737 159.897 116 157.874 115.502C152.91 114.267 147.718 114.267 142.754 115.502C141.164 115.904 139.632 116.511 138.197 117.308C135.768 118.709 134.372 120.479 134.123 122.446C130.619 122.643 126.976 124.486 124.261 127.507C123.955 127.844 123.659 128.197 123.384 128.56C121.101 131.547 119.875 135.208 119.896 138.967V139.626H120.555C122.361 139.624 124.151 139.973 125.824 140.654C126.908 141.089 127.934 141.656 128.881 142.341C129.5 142.78 130.084 143.266 130.63 143.794C131.894 145.018 132.965 146.427 133.806 147.972C135.963 151.878 136.71 156.406 135.924 160.797C135.743 161.814 135.48 162.814 135.135 163.787C134.645 165.176 133.999 166.504 133.209 167.747C133.178 167.794 133.152 167.841 133.121 167.887C132.773 168.443 132.441 169.009 132.13 169.579C131.896 170.005 131.678 170.441 131.476 170.877C130.884 172.09 130.384 173.347 129.981 174.635C129.259 176.913 128.833 179.275 128.715 181.663C128.678 182.296 128.668 182.929 128.689 183.562C128.719 185.194 128.898 186.82 129.223 188.42C129.27 188.638 129.317 188.851 129.363 189.069L129.742 190.725L130.64 194.675L131.263 197.394L131.839 199.917L132.69 198.697C132.981 198.282 133.713 197.005 134.694 195.199C135.343 194.021 136.095 192.614 136.91 191.078C138.047 188.924 139.292 186.521 140.512 184.123C141.005 183.152 141.493 182.187 141.965 181.242C142.858 179.451 143.699 177.723 144.42 176.187C145.085 174.77 145.651 173.514 146.071 172.507C146.201 173.166 146.31 173.836 146.393 174.51C146.486 175.195 146.554 175.891 146.59 176.586C146.6 176.69 146.606 176.799 146.611 176.903L146.631 177.329L146.637 177.453L147.187 177.526C150.36 177.866 153.559 177.89 156.737 177.599H156.742C160.952 177.282 165.083 176.281 168.971 174.635C171.179 173.677 173.241 172.412 175.095 170.877C175.962 170.16 176.77 169.375 177.514 168.531C177.701 168.318 177.882 168.105 178.059 167.887C179.086 166.625 179.965 165.249 180.68 163.787C181.158 162.822 181.564 161.823 181.894 160.798C183.888 154.761 183.773 147.23 181.552 138.282C182.152 138.166 182.727 137.945 183.249 137.628C184.879 136.647 186.01 134.701 186.363 132.323L186.924 132.474C188.911 131.548 190.681 130.215 192.119 128.561C192.404 128.224 192.671 127.872 192.919 127.507C195.457 123.77 195.478 119.285 193.832 115.502Z" fill="#2F2E41"/>
<path opacity="0.2" d="M107.087 247.219L111.497 230.199L115.391 244.886L107.087 247.219Z" fill="black"/>
<path d="M224.445 236.13C222.867 257.867 224.502 267.438 215.792 285.36C207.868 289.238 199.614 292.403 191.128 294.816C190.246 295.066 189.362 295.308 188.476 295.543C177.313 298.497 165.846 300.15 154.303 300.469C153.701 300.484 153.109 300.495 152.538 300.505C152.336 300.51 152.138 300.515 151.941 300.515C151.292 300.521 150.649 300.526 150 300.526C137.836 300.535 125.716 299.066 113.907 296.15C112.723 295.86 111.545 295.554 110.372 295.232C104.193 293.545 98.1303 291.459 92.2214 288.988C89.1073 287.69 86.0484 286.291 83.045 284.789C82.365 284.446 81.6851 284.104 81.0156 283.751C77.5744 277.699 75.6176 270.339 75.5761 261.495C77.9585 246.256 219.182 222.988 224.445 236.13Z" fill="#2F2E41"/>
<path opacity="0.2" d="M224.441 239.852C224.521 238.507 224.611 237.117 224.716 235.669C219.453 222.527 78.2301 245.795 75.8478 261.034C75.8544 262.431 75.9141 263.787 76.0146 265.111C81.7839 250.07 215.948 227.955 224.441 239.852Z" fill="black"/>
<path d="M84.6517 178.113C84.686 177.643 84.6192 177.17 84.4557 176.728C84.2922 176.285 84.0358 175.883 83.7037 175.547C83.3716 175.212 82.9716 174.952 82.5305 174.784C82.0895 174.617 81.6176 174.546 81.1468 174.576C80.9713 174.582 80.7968 174.604 80.6251 174.641L59.9873 179.303C59.5262 179.415 59.0935 179.622 58.7173 179.911C58.3411 180.201 58.0296 180.565 57.8029 180.982C57.5002 180.994 57.1997 181.037 56.9063 181.113C56.2641 181.258 55.6568 181.529 55.1192 181.909C54.5816 182.289 54.1241 182.772 53.7729 183.329C53.4217 183.886 53.1837 184.507 53.0724 185.156C52.9611 185.805 52.9788 186.469 53.1243 187.112C53.2699 187.754 53.5405 188.361 53.9208 188.899C54.3011 189.436 54.7835 189.894 55.3405 190.245C56.4656 190.954 57.8263 191.188 59.1233 190.894C59.8616 190.722 60.5522 190.388 61.1447 189.916L68.1381 209.608C68.4874 210.225 69.0271 210.713 69.6765 210.998C70.3258 211.283 71.05 211.35 71.7407 211.189L85.157 208.157C85.8424 207.996 86.4593 207.623 86.9191 207.09C87.3789 206.557 87.658 205.892 87.7163 205.19L84.6517 178.113ZM58.8136 189.492C57.8873 189.701 56.9159 189.534 56.1124 189.028C55.309 188.521 54.739 187.717 54.5275 186.792C54.3161 185.866 54.4803 184.894 54.9843 184.089C55.4883 183.284 56.2909 182.712 57.216 182.498C57.2812 182.482 57.3465 182.498 57.4117 182.482C57.4067 183.076 57.5586 183.661 57.8518 184.177L60.4111 188.644C59.9656 189.067 59.4133 189.36 58.8136 189.492Z" fill="#2F2E41"/>
<path d="M81.1468 174.576C81.3424 177.184 76.8758 180.183 70.8931 181.374C65.3994 182.498 60.4764 181.716 59.0907 179.662C59.3692 179.497 59.6717 179.376 59.9873 179.303L80.6251 174.641C80.7968 174.604 80.9713 174.582 81.1468 174.576V174.576Z" fill="#3F3D56"/>
<path d="M66.8737 240.788L78.4656 234.992L68.8057 208.91L66.2599 195.757C65.9291 194.048 65.1557 192.456 64.0168 191.14C62.878 189.824 61.4136 188.829 59.7701 188.256C58.1266 187.683 56.3614 187.551 54.651 187.874C52.9407 188.197 51.345 188.963 50.0234 190.096V190.096C48.0651 191.774 46.8354 194.148 46.5941 196.716C46.3527 199.284 47.1185 201.846 48.7297 203.86L58.1798 215.672L66.8737 240.788Z" fill="#A0616A"/>
<path d="M78.4656 230.162L63.0098 237.89L74.7391 274.642C75.5814 277.281 77.0913 279.658 79.1224 281.542C81.1536 283.426 83.637 284.753 86.332 285.395V285.395C89.655 286.186 93.1437 285.898 96.2921 284.573C99.4406 283.248 102.085 280.955 103.843 278.026L134.946 224.714C137.15 221.041 137.83 216.651 136.841 212.483C135.853 208.314 133.273 204.698 129.654 202.405V202.405C127.707 201.173 125.523 200.363 123.243 200.031C120.963 199.698 118.639 199.849 116.421 200.474C114.203 201.099 112.142 202.184 110.371 203.658C108.6 205.132 107.16 206.963 106.144 209.031L87.1596 249.482L78.4656 230.162Z" fill="#3F3D56"/>
<path d="M73.6852 196.949C73.6565 196.949 73.6279 196.944 73.6008 196.935L70.2263 195.773C70.1856 195.759 70.1489 195.735 70.1197 195.703C70.0905 195.672 70.0697 195.633 70.0591 195.591C70.0485 195.55 70.0485 195.506 70.059 195.464C70.0696 195.422 70.0904 195.384 70.1196 195.352L72.6294 192.62C72.6524 192.594 72.6801 192.574 72.711 192.559C72.742 192.545 72.7755 192.537 72.8096 192.535C72.8437 192.534 72.8778 192.539 72.9099 192.55C72.942 192.562 72.9715 192.58 72.9966 192.603C73.0218 192.626 73.0422 192.654 73.0565 192.685C73.0709 192.716 73.079 192.75 73.0804 192.784C73.0818 192.818 73.0764 192.852 73.0646 192.884C73.0528 192.916 73.0348 192.945 73.0116 192.97L70.77 195.411L73.7696 196.444C73.8277 196.464 73.8768 196.504 73.9082 196.557C73.9396 196.609 73.9513 196.672 73.9411 196.732C73.931 196.793 73.8998 196.848 73.8529 196.887C73.806 196.927 73.7466 196.949 73.6852 196.949V196.949Z" fill="#20D8BE"/>
<path d="M78.3106 196.002C78.2589 196.002 78.2084 195.986 78.1655 195.958C78.1227 195.929 78.0894 195.888 78.07 195.84C78.0506 195.792 78.046 195.739 78.0567 195.689C78.0674 195.638 78.093 195.592 78.1302 195.556L80.4111 193.35L77.347 192.088C77.3155 192.075 77.2868 192.056 77.2626 192.032C77.2384 192.008 77.2192 191.979 77.2061 191.948C77.1929 191.916 77.1861 191.883 77.1861 191.849C77.186 191.814 77.1926 191.781 77.2056 191.749C77.2186 191.718 77.2377 191.689 77.2618 191.665C77.2859 191.641 77.3145 191.621 77.346 191.608C77.3775 191.595 77.4113 191.589 77.4454 191.589C77.4795 191.589 77.5132 191.595 77.5447 191.608L80.9752 193.022C81.015 193.038 81.0502 193.064 81.0774 193.098C81.1047 193.131 81.1232 193.171 81.1313 193.213C81.1394 193.255 81.1368 193.299 81.1238 193.34C81.1108 193.381 81.0878 193.418 81.0568 193.448L78.491 195.929C78.4427 195.976 78.3779 196.002 78.3106 196.002V196.002Z" fill="#20D8BE"/>
<path d="M74.3935 198.536C74.3677 198.536 74.3419 198.532 74.3172 198.525C74.2846 198.515 74.2543 198.498 74.2281 198.477C74.2018 198.455 74.18 198.428 74.1641 198.398C74.1481 198.368 74.1383 198.335 74.1351 198.301C74.1319 198.267 74.1354 198.233 74.1454 198.2L76.5406 190.415C76.5611 190.349 76.6067 190.294 76.6675 190.262C76.7283 190.23 76.7993 190.224 76.865 190.244C76.9306 190.264 76.9856 190.31 77.0178 190.37C77.05 190.431 77.0569 190.502 77.0368 190.568L74.6416 198.353C74.6253 198.406 74.5923 198.453 74.5477 198.486C74.503 198.519 74.449 198.536 74.3935 198.536V198.536Z" fill="#20D8BE"/>
</g>
<defs>
<clipPath id="clip0_18_698">
<rect width="300" height="300" fill="white" transform="translate(0 0.525879)"/>
</clipPath>
</defs>
</svg>
