<svg width="95" height="95" viewBox="0 0 95 95" fill="none" xmlns="http://www.w3.org/2000/svg">
<circle cx="48" cy="48" r="25" fill="white"/>
<path d="M47.5 0C21.2681 0 0 21.2681 0 47.5C0 56.411 2.50302 64.719 6.77246 71.8453L0.425212 95L24.0747 88.7919C30.9912 92.7242 38.9757 95 47.5 95C73.7319 95 95 73.7319 95 47.5C95 21.2681 73.7319 0 47.5 0ZM31.2415 25.3426C32.0133 25.3426 32.8064 25.3379 33.4912 25.3735C34.3383 25.3933 35.2603 25.4554 36.143 27.4068C37.1919 29.7264 39.476 35.5455 39.7689 36.1353C40.0618 36.725 40.2694 37.4199 39.8616 38.1917C39.4737 38.9834 39.272 39.4625 38.702 40.1632C38.1122 40.844 37.4659 41.6896 36.9316 42.2042C36.3418 42.794 35.7327 43.4407 36.4136 44.6163C37.0944 45.7919 39.4589 49.6459 42.9541 52.7572C47.4468 56.7709 51.2374 58.0044 52.417 58.5942C53.5966 59.1839 54.2797 59.092 54.9605 58.3004C55.6612 57.5285 57.903 54.8799 58.6947 53.7004C59.4665 52.5208 60.2545 52.7249 61.3232 53.1128C62.4078 53.5007 68.1918 56.3499 69.3713 56.9397C70.5509 57.5295 71.3242 57.8214 71.6211 58.3004C71.9259 58.7952 71.9262 61.1506 70.9485 63.8977C69.9708 66.6408 65.1697 69.2935 63.0164 69.4796C60.8432 69.6814 58.8151 70.4564 48.8916 66.5495C36.9216 61.8351 29.3728 49.575 28.783 48.7834C28.1932 48.0115 23.9897 42.4092 23.9897 36.63C23.9897 30.8311 27.0301 27.9911 28.0949 26.8115C29.1795 25.6319 30.4498 25.3426 31.2415 25.3426Z" fill="white"/>
<path d="M48 8C25.91 8 8 25.91 8 48C8 55.504 10.1078 62.5002 13.7031 68.5013L8.35807 88L28.2734 82.7721C34.0978 86.0835 40.8216 88 48 88C70.09 88 88 70.09 88 48C88 25.91 70.09 8 48 8ZM34.3086 29.3411C34.9586 29.3411 35.6265 29.3372 36.2031 29.3672C36.9165 29.3839 37.6929 29.4361 38.4362 31.0794C39.3195 33.0328 41.2429 37.933 41.4896 38.4297C41.7362 38.9264 41.911 39.5115 41.5677 40.1615C41.241 40.8281 41.0711 41.2316 40.5911 41.8216C40.0945 42.3949 39.5503 43.107 39.1003 43.5404C38.6036 44.037 38.0907 44.5816 38.6641 45.5716C39.2374 46.5616 41.2285 49.8071 44.1719 52.4271C47.9552 55.8071 51.1473 56.8458 52.1406 57.3424C53.134 57.8391 53.7092 57.7617 54.2826 57.0951C54.8726 56.4451 56.7604 54.2147 57.4271 53.2214C58.0771 52.228 58.7406 52.3999 59.6406 52.7266C60.554 53.0532 65.4246 55.4526 66.418 55.9492C67.4113 56.4459 68.0625 56.6917 68.3125 57.0951C68.5692 57.5117 68.5694 59.4953 67.7461 61.8086C66.9228 64.1186 62.8797 66.3524 61.0664 66.5091C59.2364 66.6791 57.5285 67.3317 49.1719 64.0417C39.0919 60.0717 32.7349 49.7474 32.2383 49.0807C31.7416 48.4307 28.2018 43.713 28.2018 38.8464C28.2018 33.963 30.7622 31.5715 31.6589 30.5781C32.5722 29.5848 33.6419 29.3411 34.3086 29.3411Z" fill="#25D366"/>
</svg>
