<svg width="60" height="45" viewBox="0 0 60 45" fill="none" xmlns="http://www.w3.org/2000/svg">
<g clip-path="url(#clip0_21_739)">
<path fill-rule="evenodd" clip-rule="evenodd" d="M4.0625 0H55.9375C57.0141 0.00257881 58.046 0.431419 58.8073 1.19273C59.5686 1.95404 59.9974 2.98585 60 4.0625V40.498C59.9961 41.5743 59.5669 42.6054 58.8059 43.3664C58.0448 44.1274 57.0138 44.5567 55.9375 44.5605H4.0625C2.98625 44.5567 1.95517 44.1274 1.19414 43.3664C0.433111 42.6054 0.00385988 41.5743 0 40.498L0 4.0625C0.00257881 2.98585 0.431419 1.95404 1.19273 1.19273C1.95404 0.431419 2.98585 0.00257881 4.0625 0V0ZM43.3594 26.582C43.4287 26.2842 43.6134 26.0261 43.873 25.8644C44.1326 25.7028 44.4458 25.6509 44.7437 25.7202C45.0415 25.7895 45.2996 25.9743 45.4613 26.2339C45.6229 26.4935 45.6748 26.8066 45.6055 27.1045L43.1055 37.8125C43.0362 38.1104 42.8514 38.3685 42.5918 38.5301C42.3322 38.6917 42.019 38.7436 41.7212 38.6743C41.4233 38.605 41.1652 38.4203 41.0036 38.1607C40.842 37.9011 40.7901 37.5879 40.8594 37.29L43.3594 26.582ZM7.90039 35.752C7.55592 35.752 7.22556 35.6151 6.98198 35.3715C6.7384 35.128 6.60156 34.7976 6.60156 34.4531C6.60156 34.1087 6.7384 33.7783 6.98198 33.5347C7.22556 33.2911 7.55592 33.1543 7.90039 33.1543H20.1074C20.278 33.1543 20.4469 33.1879 20.6045 33.2532C20.762 33.3184 20.9052 33.4141 21.0258 33.5347C21.1464 33.6553 21.2421 33.7985 21.3074 33.9561C21.3727 34.1137 21.4062 34.2826 21.4062 34.4531C21.4062 34.6237 21.3727 34.7926 21.3074 34.9502C21.2421 35.1077 21.1464 35.2509 21.0258 35.3715C20.9052 35.4921 20.762 35.5878 20.6045 35.6531C20.4469 35.7184 20.278 35.752 20.1074 35.752H7.90039ZM7.90039 27.6416C7.55592 27.6416 7.22556 27.5048 6.98198 27.2612C6.7384 27.0176 6.60156 26.6872 6.60156 26.3428C6.60156 25.9983 6.7384 25.6679 6.98198 25.4244C7.22556 25.1808 7.55592 25.0439 7.90039 25.0439H29.1113C29.4558 25.0439 29.7862 25.1808 30.0297 25.4244C30.2733 25.6679 30.4102 25.9983 30.4102 26.3428C30.4102 26.6872 30.2733 27.0176 30.0297 27.2612C29.7862 27.5048 29.4558 27.6416 29.1113 27.6416H7.90039ZM7.90039 19.5312C7.55592 19.5312 7.22556 19.3944 6.98198 19.1508C6.7384 18.9073 6.60156 18.5769 6.60156 18.2324C6.60156 17.888 6.7384 17.5576 6.98198 17.314C7.22556 17.0704 7.55592 16.9336 7.90039 16.9336H41.5039C41.8484 16.9336 42.1787 17.0704 42.4223 17.314C42.6659 17.5576 42.8027 17.888 42.8027 18.2324C42.8027 18.5769 42.6659 18.9073 42.4223 19.1508C42.1787 19.3944 41.8484 19.5312 41.5039 19.5312H7.90039ZM39.4434 35.1562C39.6545 35.3619 39.7788 35.6407 39.7907 35.9352C39.8026 36.2298 39.7012 36.5177 39.5073 36.7397C39.3134 36.9617 39.0418 37.101 38.7484 37.1289C38.4549 37.1568 38.1619 37.0712 37.9297 36.8896L33.5352 33.0566C33.4215 32.9574 33.3286 32.8366 33.2616 32.7014C33.1947 32.5661 33.1551 32.419 33.1452 32.2684C33.1352 32.1178 33.155 31.9667 33.2035 31.8238C33.252 31.6809 33.3282 31.549 33.4277 31.4355C33.4614 31.3945 33.499 31.3569 33.54 31.3232L37.9346 27.4951C38.1638 27.2944 38.4633 27.1929 38.7674 27.2131C39.0714 27.2332 39.3549 27.3733 39.5557 27.6025C39.7564 27.8318 39.8578 28.1313 39.8377 28.4353C39.8175 28.7393 39.6775 29.0229 39.4482 29.2236L36.0645 32.1924L39.4434 35.1562ZM48.8281 36.8945C48.714 36.9939 48.5814 37.0699 48.4379 37.118C48.2944 37.1661 48.1429 37.1856 47.9919 37.1751C47.8409 37.1647 47.6934 37.1246 47.5579 37.0572C47.4224 36.9898 47.3015 36.8964 47.2021 36.7822C47.1028 36.6681 47.0268 36.5355 46.9787 36.392C46.9305 36.2485 46.9111 36.097 46.9216 35.946C46.932 35.795 46.972 35.6475 47.0395 35.512C47.1069 35.3765 47.2003 35.2556 47.3145 35.1562L50.6982 32.1924L47.3145 29.2285C47.201 29.1291 47.1082 29.0084 47.0413 28.8731C46.9745 28.7378 46.935 28.5907 46.925 28.4402C46.915 28.2897 46.9348 28.1387 46.9832 27.9958C47.0316 27.8529 47.1076 27.7209 47.207 27.6074C47.3064 27.4939 47.4272 27.4011 47.5624 27.3343C47.6977 27.2675 47.8448 27.2279 47.9953 27.218C48.1459 27.208 48.2969 27.2278 48.4398 27.2762C48.5827 27.3245 48.7146 27.4006 48.8281 27.5L53.2227 31.3281C53.2637 31.3618 53.3013 31.3994 53.335 31.4404C53.4345 31.5538 53.5107 31.6858 53.5592 31.8287C53.6077 31.9716 53.6275 32.1227 53.6175 32.2733C53.6076 32.4238 53.568 32.571 53.5011 32.7062C53.4341 32.8415 53.3412 32.9622 53.2275 33.0615L48.833 36.8945H48.8281ZM57.6172 11.3721H2.58301V40.8936C2.58398 41.0428 2.61521 41.1902 2.67479 41.327C2.73438 41.4638 2.82109 41.5871 2.92969 41.6895C3.03401 41.7941 3.15811 41.8769 3.29475 41.933C3.43139 41.9892 3.57785 42.0176 3.72559 42.0166H56.46C56.6077 42.0176 56.7542 41.9892 56.8908 41.933C57.0274 41.8769 57.1515 41.7941 57.2559 41.6895C57.3609 41.5855 57.444 41.4614 57.5002 41.3247C57.5564 41.188 57.5846 41.0414 57.583 40.8936V11.3721H57.6172ZM52.0703 4.56543C52.4674 4.56446 52.8559 4.68134 53.1866 4.90127C53.5172 5.12119 53.7752 5.43428 53.9279 5.80089C54.0805 6.16751 54.1209 6.57117 54.0441 6.96078C53.9672 7.35039 53.7764 7.70843 53.496 7.98958C53.2155 8.27073 52.8579 8.46235 52.4685 8.54018C52.0791 8.61801 51.6753 8.57855 51.3083 8.4268C50.9414 8.27505 50.6276 8.01784 50.4069 7.68771C50.1862 7.35758 50.0684 6.96939 50.0684 6.57227C50.0684 6.04086 50.2791 5.53116 50.6544 5.15494C51.0297 4.77873 51.5389 4.56672 52.0703 4.56543ZM38.4766 4.56543C38.8735 4.56543 39.2615 4.68313 39.5915 4.90364C39.9215 5.12416 40.1787 5.43758 40.3306 5.80428C40.4825 6.17098 40.5223 6.57449 40.4448 6.96378C40.3674 7.35307 40.1763 7.71065 39.8956 7.99131C39.6149 8.27197 39.2574 8.46311 38.8681 8.54054C38.4788 8.61798 38.0753 8.57823 37.7086 8.42634C37.3419 8.27445 37.0285 8.01723 36.8079 7.6872C36.5874 7.35718 36.4697 6.96918 36.4697 6.57227C36.4697 6.04002 36.6812 5.52957 37.0575 5.15322C37.4339 4.77686 37.9443 4.56543 38.4766 4.56543ZM45.2734 4.56543C45.6704 4.56543 46.0584 4.68313 46.3884 4.90364C46.7184 5.12416 46.9756 5.43758 47.1275 5.80428C47.2794 6.17098 47.3191 6.57449 47.2417 6.96378C47.1643 7.35307 46.9731 7.71065 46.6925 7.99131C46.4118 8.27197 46.0542 8.46311 45.665 8.54054C45.2757 8.61798 44.8722 8.57823 44.5055 8.42634C44.1388 8.27445 43.8253 8.01723 43.6048 7.6872C43.3843 7.35718 43.2666 6.96918 43.2666 6.57227C43.2666 6.04002 43.478 5.52957 43.8544 5.15322C44.2307 4.77686 44.7412 4.56543 45.2734 4.56543Z" fill="black"/>
</g>
<defs>
<clipPath id="clip0_21_739">
<rect width="60" height="44.5605" fill="white"/>
</clipPath>
</defs>
</svg>
