<svg width="30" height="31" viewBox="0 0 30 31" fill="none" xmlns="http://www.w3.org/2000/svg">
<path d="M8.2961 22.2829V12.5989H11.1041V22.2829H8.2961ZM9.7001 11.2489C9.1841 11.2489 8.7641 11.0989 8.4401 10.7989C8.1161 10.4989 7.9541 10.1269 7.9541 9.68286C7.9541 9.23886 8.1161 8.86686 8.4401 8.56686C8.7641 8.26686 9.1841 8.11686 9.7001 8.11686C10.2161 8.11686 10.6361 8.26086 10.9601 8.54886C11.2841 8.82486 11.4461 9.18486 11.4461 9.62886C11.4461 10.0969 11.2841 10.4869 10.9601 10.7989C10.6481 11.0989 10.2281 11.2489 9.7001 11.2489Z" fill="#323333"/>
<path d="M19.5962 12.4549C20.3642 12.4549 21.0482 12.6109 21.6482 12.9229C22.2602 13.2229 22.7402 13.6909 23.0882 14.3269C23.4362 14.9509 23.6102 15.7549 23.6102 16.7389V22.2829H20.8022V17.1709C20.8022 16.3909 20.6282 15.8149 20.2802 15.4429C19.9442 15.0709 19.4642 14.8849 18.8402 14.8849C18.3962 14.8849 17.9942 14.9809 17.6342 15.1729C17.2862 15.3529 17.0102 15.6349 16.8062 16.0189C16.6142 16.4029 16.5182 16.8949 16.5182 17.4949V22.2829H13.7102V12.5989H16.3922V15.2809L15.8882 14.4709C16.2362 13.8229 16.7342 13.3249 17.3822 12.9769C18.0302 12.6289 18.7682 12.4549 19.5962 12.4549Z" fill="#323333"/>
<path fill-rule="evenodd" clip-rule="evenodd" d="M15 29.2829C22.732 29.2829 29 23.0149 29 15.2829C29 7.55089 22.732 1.28288 15 1.28288C7.26801 1.28288 1 7.55089 1 15.2829C1 23.0149 7.26801 29.2829 15 29.2829ZM15 30.2829C23.2843 30.2829 30 23.5671 30 15.2829C30 6.9986 23.2843 0.282875 15 0.282875C6.71573 0.282875 0 6.9986 0 15.2829C0 23.5671 6.71573 30.2829 15 30.2829Z" fill="#323333"/>
</svg>
