<svg width="30" height="31" viewBox="0 0 30 31" fill="none" xmlns="http://www.w3.org/2000/svg">
<path d="M16.256 22.4269C15.116 22.4269 14.228 22.1389 13.592 21.5629C12.956 20.9749 12.638 20.1049 12.638 18.9529V10.4569H15.446V18.9169C15.446 19.3249 15.554 19.6429 15.77 19.8709C15.986 20.0869 16.28 20.1949 16.652 20.1949C17.096 20.1949 17.474 20.0749 17.786 19.8349L18.542 21.8149C18.254 22.0189 17.906 22.1749 17.498 22.2829C17.102 22.3789 16.688 22.4269 16.256 22.4269ZM11.144 14.9749V12.8149H17.858V14.9749H11.144Z" fill="#323333"/>
<path fill-rule="evenodd" clip-rule="evenodd" d="M15 29.2829C22.732 29.2829 29 23.0149 29 15.2829C29 7.55089 22.732 1.28288 15 1.28288C7.26801 1.28288 1 7.55089 1 15.2829C1 23.0149 7.26801 29.2829 15 29.2829ZM15 30.2829C23.2843 30.2829 30 23.5671 30 15.2829C30 6.9986 23.2843 0.282875 15 0.282875C6.71573 0.282875 0 6.9986 0 15.2829C0 23.5671 6.71573 30.2829 15 30.2829Z" fill="#323333"/>
</svg>
